<svg viewBox="0 0 356 370.159" xmlns="http://www.w3.org/2000/svg" xmlns:xlink="http://www.w3.org/1999/xlink"><style>:root&gt;svg{display:none}:root&gt;svg:target{display:block}</style><svg viewBox="0 0 256.365 351.339" id="blue-body" xmlns="http://www.w3.org/2000/svg"><g fill="#71bfff"><path d="M159.735 7.591a4.582 4.582 0 0 1 .2-.43 2.989 2.989 0 0 0-1.525.415 7.234 7.234 0 0 1 1.325.015zM90.674 4.665a3.667 3.667 0 0 0 .136.428c.103-.304.107-.495-.136-.428zm69.974 3.043a10.662 10.662 0 0 1 1.271.333 3.077 3.077 0 0 0-1.271-.333zM26.463 56.538c-1.728-.637.088-4.421-2.6-.19a6.88 6.88 0 0 1 2.6.19zM159.585 8.539c.316-.574.623-.815 1.063-.831a9.094 9.094 0 0 0-.913-.117 1.117 1.117 0 0 0-.15.948zm96.596 313.73l-.047.954-.186 3.781c.122-1.037.215-2.254.278-3.555l.071-1.651c.016-.363.024-.731.024-1.1l-.093 1.025zM3.307 243.603l-.3-.942a.961.961 0 0 0 .3.942zM255.935 349.48a32.863 32.863 0 0 0-5.772-1.749c-.135.2-.347.36-.317.652zM145.462 9.703l-.444-.27a.471.471 0 0 0 .444.27zm-78.86 7.426c.066-.026.125-.04.193-.069a.4.4 0 0 0-.193.069zM2.303 256.694c-.042-.089-.1-.19-.149-.289z"/><path d="M253.417 315.002c4.871-5.544-3.92-11.143 2.322-14.264a209 209 0 0 1-4.623-25.251c4.06.29.405 8.888 4.667 8.543-1.672-7.628-5.157-12.028-4.177-19.592.554-1.959 1.76 1.112 2.454 1.773-1.672-7.62.369-14.735-1.841-21.515.378.019.791.75 1.1 1.442-.134-1.337.593-3.109-1.249-2.958l.5 1.3c-2.678 2.134-5.594-5.307-7.009-5.546 5.288 2.268 1.329-6.7 8.012-3.095a2.462 2.462 0 0 0-2.458-1.781c.361-1.3 1.081-1.719 2.485-.4-1-4.786-2.966-3.086-2.925-7.423.9.016 1.24.891 2.29 1.34-1.742-2.2-3.485-4.4-2.729-8.067.469.192 1.062-.1 1.2.539-.413-6.109-4.578-10.509-2.927-17.284 3.881 2.036 1.278-2.349 4.637-2.715l-1-3.713-1.631 1.49c.057-3.253-2.391-6.127-1.29-8.923l1.384 2.417-.637-6.1-1.274 3.45c-1.732-3.292-4.252.352-3.316-3.977.34.879.041-3.254 2.021-4.949 0 0 0 .011.009.011-1.07-1.609-2.2-3.264-1.362-5.669 1.074-.625 3.716.5 4.431.1-2.808-1.588-.779-7.617-3.771-9.628a3.443 3.443 0 0 0 2.825.485l-2.281-1.332c.73-1.507 1.084-1.727 2.489-1.483.418-4.532-4.262 1.44-2.425-3.939.184.422.525.22.872 1.1.958-5.4-1.448-10.437-.325-15.4 3.381-1.464.828 4.337 3.68 2.661-.622-7.173-4.032-14.787-3.278-21.781-.114.447-.222.9-.351 1.325-2.377-.477-1.836-1.791-.968-3.462a14.185 14.185 0 0 0 1.191-2.722 3.2 3.2 0 0 0-.452-2.78c.421.86 2.734 1 2.185.791a16.81 16.81 0 0 0-.175-3.833 24.088 24.088 0 0 0-1.075-4.017c-.887-2.784-2.318-5.773-3.777-9.256l1.409.651a18.339 18.339 0 0 0-.427-5.391c-.387-1.929-.951-3.842-1.107-5.457-1.4-.566-1.816-2.309-3.16-.741a12.4 12.4 0 0 0 .612-3.983 11.376 11.376 0 0 0-.171-1.83 13.1 13.1 0 0 0-.491-1.7 18.253 18.253 0 0 0-1.521-3.142 30.747 30.747 0 0 0-2.035-2.832l-2.089-2.7a20.637 20.637 0 0 1-1.872-2.726 11.56 11.56 0 0 1-1.576-6.551c.526.886 2.164 1.611 1.752.891-.791-.976-1.536-1.972-2.36-2.915l-2.469-2.808c-1.427 1.625-.531 1.5-1.08 3.647a6.547 6.547 0 0 1-4.387-2.719c2.936 1.866 2.785-1.893 2.87-3.729-.383.56-1.239.569-1.7 1.04.412-2.613-.541-2.146-1.692-1.7s-2.495.84-3.084-1.9l1.028-.459c-1.629-1.171-3.8-1.637-4.917-3.35 1.267-2.211 2.179.8 3.792-.359-1.016-1.069-2.831-1.423-4.353-1.924-1.505-.526-2.824-1.106-2.845-2.884 1.329.428 2.58 1.685 3.864 2.2a7.142 7.142 0 0 0-.4-3.659c-.331-.681-.814-1.09-1.4-2.035l.1.2c-.832-1.534-1.763-2.995-2.7-4.473l.406 1.444c-3.546.978-5-.11-6.563-1.389-1.518-1.3-3.011-2.959-6.215-2.81 6.154-.109 2.032-1.264 4.007-3.179-.532-1.381-1.574-3.278-.665-3.539-1.609.113-2.156-.811-2.907-1.712a3.7 3.7 0 0 0-3.968-1.441c.361-.807-2.112-1.458-.452-3.011-3.036-1.127-.2 1.688-1.036 2.457a5.916 5.916 0 0 1-3.669-1.446 37.427 37.427 0 0 1-3.318-3.013 15.509 15.509 0 0 0-3.895-2.916 10.042 10.042 0 0 0-2.384-.871 8.7 8.7 0 0 0-2.787-.1 17.6 17.6 0 0 0-3.922-.166 26.087 26.087 0 0 0-3.13.569 27.315 27.315 0 0 1-4.4.745q-1.173-.429-2.358-.831a1.624 1.624 0 0 1 .979-1.129 6.53 6.53 0 0 1 1.688-.56 9.245 9.245 0 0 0-3.516-2.125 11.028 11.028 0 0 0-3.966-.281c.742-.584.371-1.363-.195-2.547-2.232-.4-2.236 2.7-4.77.769a11.408 11.408 0 0 1 3.017-2.921c-2.828.189-5.715 1.132-8.527 1.491-.445-1.633 2.04-1.992 3.213-2.794-1.609.06-3.662.044-5.463.3-1.805.271-3.364.9-3.977 2.033l1.363.831a2.1 2.1 0 0 1 1.051-2.194c2.912-1.487 3.617 1.474 3.59 2.349l-1.981.218c.551 2.721 2.4 2.815 4.657 2.429 2.222-.3 4.915-1.206 6.744-.528-.6.76-1.191 1.524-1.778 2.3a114.629 114.629 0 0 0-18.773-3.269c1.835-1.346 4.178-3.574 3.314-6.439-2.083 2.638-2.42 1.466-4.57 4.7a1.917 1.917 0 0 1-2.246-2.228c-.568.721-2.347-.724-3.217 1.12A4.772 4.772 0 0 0 135 9.82a5.77 5.77 0 0 0 3.806-1.045c.493.691-.1 1.422-.276 1.96-3.37-.3-6.781-.467-10.229-.473a32.87 32.87 0 0 0 .442-3.582 1.168 1.168 0 0 0 1.147.307l1.136-2.952-2.413.736a.148.148 0 0 0-.011.022c-.368-1.731-1.532-3.3-4.507-4.54-1.483.866-2.933 1.828-4.351 2.8l-1.6-1.916 3.789-.414c-2.272-1.75-3.566.046-4.964 1.319a3.392 3.392 0 0 0-2.116-2.041q-2.013 2.27-3.885 4.529c-.778-1.555 1.528-3.478-1.588-3.989-1.756 2.193 2.487 3.29-.651 5.086-2.391-1.509-2.1-3.138-4.261-1.1-.559-1-.17-1.765.741-2.41a6.68 6.68 0 0 1-1.756.993c-.641.291-1.315.55-1.95.825-1.267.551-2.37 1.187-2.66 2.4-1.377-.926-3.158-.2-4.7.167-1.539.387-2.846.495-3.331-1.414-.415 1.143-2.817 4.229-4.673 5.05.965-2.853-.888-2.31-3.072-1.54a10.721 10.721 0 0 1-3.244.751 1.841 1.841 0 0 1-2-1.662 5.732 5.732 0 0 1-1.78 3.145 21.336 21.336 0 0 1-3.244 2.328c-1.2.747-2.492 1.473-3.683 2.286a12.459 12.459 0 0 0-3 2.938c.058-.367.164-1.047.5-1.26-2.474.967-3.843.321-5.755.636 1.556 3.194-1.668 6.167-2.219 9.314-2.344-.42-2.557-1.538-2.482-2.841s.417-2.774-.966-3.8c1.749 2.245-3.238 5.824-.831 7.055-3.325-.067-2.377.567-5.268-.877 1.2 1.864.839 2.383.176 2.873a2.875 2.875 0 0 0-1.516 2.749 5.062 5.062 0 0 1-3.633-.439c-.621-.254-.994-.14-2.058 1.813-1.19.2-1.38-.625-1.257-1.515a7.75 7.75 0 0 1 .555-1.837c-3.233 2.974.747 3.781 1.4 5.794-1.5 2.068-2.333 2.044-3.115 1.511s-1.513-1.622-2.731-1.578a15.165 15.165 0 0 0-1.346 4.716c-.253 1.543-.464 2.94-1.288 3.78-.528-.225-.983-.006-1.149-.862a6.823 6.823 0 0 1-1.06 3.07 33.474 33.474 0 0 1-2.048 3.063 36.844 36.844 0 0 0-1.077 1.576 15.015 15.015 0 0 0-.85 1.684 7.227 7.227 0 0 0-.624 3.585 2.022 2.022 0 0 1-.97-.056 10.385 10.385 0 0 1 4.1 2.1c-1 1.522-.065 3.949-2.275 3.337.652-.9-.034-1.453-.317-2.268l-.239 2.123c-3.574-.214.5-2.79-1.421-4.071a61.261 61.261 0 0 0-1.392 6.082c-.39 2.011-.917 3.764-2.005 4.8-3.009-.929 2.481-6.391-1.825-4.36 1.108-1.12 2.157-2.26 3.328-3.308-5.992.419 1.8-2.189-4.333-2.176a14.61 14.61 0 0 0-3.014 5.82 16.6 16.6 0 0 1-2.7 5.941c.944 1.976 2.442.687 3.411 2.647a6.009 6.009 0 0 1-1.8 4.34 7.827 7.827 0 0 1-3.138 1.5 6.546 6.546 0 0 0-2.808 1.265c-.676.666-1.015 1.721-.548 3.583.694 1.121 1.909 2.135 2.535 3.3s.638 2.462-.919 4.3q-1.453-1.206-2.894-2.454c-1.921 5.639 3.774 4.495.16 9.838-1.085-1.346-.08-4.73-.68-3.966-3.555 3.254 1.269 3.205.6 6.118l-3.112.016c-.777 6.312.628 13.4.921 20.167-.9-.4-1.825-1.636-2.8-.052a49.8 49.8 0 0 1 .047 12.939 114.75 114.75 0 0 1-2.349 12.352l2.642 2.962c-.031.689-1.194 1.279-1.706.532-1 3.023 1.675.157 2.714 1.61.184 1.719-1.519 2.271-2.312 1.181 2.24 5.334 4.825 15.192 2 20.811l-.785-1.1c-1.072 4.375 5.414 4.937 2.951 9l-.468-.779c-1.145 9.5 1.274 19.991-2.714 27.237 3.806 1.378-1.7 9.4 3.61 10.01-2.629 5.423-3.576 3.87-5.346 11.507-.244 2.039 3.314 3.039 3.868 5.561l-2.775.062 2.911 3.423-3.318 1.822.712 2.365c.163-.942 1.246-2 2.046-1.859 1.254 3.694-1.934 9.006-3.355 9.1l2.346 8.74c-.847-.147-1.271-1.024-1.738-1.945 1.564 3.279-3.208.285-.8 4.253.629-.573 1.652.31 2.213.407-1.677 2.132-1.692 6.982-.985 10.572l-1.913-.689c-.486 6.483.918 13.667.883 20.944a2.325 2.325 0 0 1 4.524.123l-2.928.853c1.809 1.378 1.105-2.229 3.321.6-.338 2.718-3.333 1.827-4.286.266l1.017 3.3c-.877.194-1.339-.581-2.455-.783 1.822 1.356-2.942 5.7.22 7.66l-.872.186c-.024 7.274.985 10.572 1.131 16.5a2.363 2.363 0 0 1 1.408.456 2.305 2.305 0 0 1 .436.457c.063.086.123.177.18.272a.972.972 0 0 1 .084.156l.082.253a11.631 11.631 0 0 0 1.825 4.231c-.331 2.856-.862 6.034-1.357 9.556s-.956 7.367-1.148 11.214c1.47.084 3.06.116 4.724.078 3.706-.63 4.443-1.166 4.857-1.732a3.627 3.627 0 0 1 2.177-1.914c-.538 1.151 1.345 1.673 2.8 2.114 1.428.441 2.453.8-.25 1.628l7.1-.258c1.962-.09 4.211-.194 4.976-.345 2.219-.3 4.646-.79 8.627-1.726-.864-.947-1.836-1.356-1.332-2.142 1.445-.38 3.288.966 3.08 2.074l-.381.237c8.777-3.392 20.2 6.348 27.354 2.152l7.376-2.5c3.4.4-2.037 1.733.476 3.159 7.962-3.845 12.581.559 19.137-2 5.076 6.8 18.011-.479 24.862 3.862l-.4-1.6c1.77-1.571 2.142.917 3.447 1.284-.185-1.244-1.921-1.439-.821-2.31 15-1.929 30.958 2.34 46.336 3.786 5.624.429 3.192-8.286 10.282-4.463l-2.013 2.973c11.35-3.568 23.209.124 34.319-2.9-.662.686-.681 1.577-1.765 1.567 2.346 2.16 8.678.1 8.718-1.659 1.73.2.4 1.595 1.467 2.491 2.354 1.275 5.909-2.757 7.16-.608.138.228-.185.456-.545.633a19.989 19.989 0 0 1 3.406-.341 7.355 7.355 0 0 0 .966-.132 5.383 5.383 0 0 0 1.256-.271c.615-.244.7-.629.03-1.252a42.993 42.993 0 0 0 10.349.075 31.143 31.143 0 0 1 9.489.292c.447-.834 1.733-1.048 3.364-1.046 0-1.871.306-3.652.262-5.374a5.9 5.9 0 0 0-1.816-4.545c1.018.771 1.732.545 2.2-.427a12.268 12.268 0 0 0 .729-4.591 38.711 38.711 0 0 0-.394-6.032c-.28-1.861-.688-3.844-1.167-4.214 1.231.883 1.275-2.292 2.979-1.258-.056-3.008-.812-5.766-2.904-5.241zM6.974 121.259h-.051c-.031-.833-.079-1.545-.079-2 .002.415.054.994.13 2zm-.073 7.913a29.472 29.472 0 0 0 .1-3.326c.876-.27 1.772.023 1.727.794-.582-.422-1.088 1.388-1.826 2.532zm227.53-53.684a7.944 7.944 0 0 1-2.126 1.077q-.545-1.161-1.112-2.307c.925-.333 1.981-.135 3.239 1.23zm-54.197-54.87c0 .707-.013 1.4-.02 2.107q-1.263-.642-2.543-1.255a5.012 5.012 0 0 1 2.563-.852zm-19.067-7.653a3.192 3.192 0 0 1 .161 2.181q-1.576-.474-3.174-.9c.992-.44 1.991-.858 3.013-1.284z"/><path d="M251.434 220.054c.008.117.024.231.029.349a1.584 1.584 0 0 0-.029-.349zM2.154 256.405zm222.501 92.95a2.006 2.006 0 0 0-.548.234c.151-.058.354-.139.548-.234zM2.062 235.062l.637-.011-.559-.67zM226.74 56.878a1.255 1.255 0 0 0 .194-.846 1.62 1.62 0 0 0-.194.846zM215.03 41.85c-.409-.858-.806-1.738-1.265-2.566a19.27 19.27 0 0 0 1.265 2.566zm-10.056-10.873a4.189 4.189 0 0 0-.907.666c0 .013.01.018.01.033zm48.346 215.161a1.763 1.763 0 0 0 .114.541c.491 1.269.297.406-.114-.541zm-5.911-66.372a12.077 12.077 0 0 1 1.2 2.134c.189-1.182.24-2.1-1.2-2.134zm8.912 140.478c.009.158 0 .3 0 .457l.044-.449c-.015-.008-.021 0-.044-.008zm-7.76-135.258a3.875 3.875 0 0 0 .044-3.086 5.825 5.825 0 0 0-.044 3.086zM146.205 4.041a.756.756 0 0 1-.143.391l.844-.194zm-.143.391l-.834.2c.364.041.681.062.834-.2zm-2.577.616l1.743-.421c-.575-.08-1.28-.249-1.743.421zm22.369 4.824l.5-.8a1.871 1.871 0 0 0-.5.8zm2.96.446c.927.861 1.878 1.728 2.775 1.27-1.23-.749-2.743-3.03-4.836-3.154l-.4.634c.653-.496 1.541.384 2.461 1.25zm80.909 140.632l1.43-1.906-2.11-.907z"/></g></svg><svg viewBox="0 0 115.185 68.01" id="blue-laugh" xmlns="http://www.w3.org/2000/svg"><path d="M60.185 46.939l20-9s8 19-5 27-15-18-15-18z" fill="#d3182a"/><path d="M109.405 0c-7.7 0-7.712 11.965 0 11.965S117.118 0 109.405 0zM5.779 0c-7.7 0-7.712 11.965 0 11.965S13.492 0 5.779 0zm78.539 24.966c-4.92 10.13-14.324 16.472-25.21 18.785-10.276 2.184-28.921 2.919-32.651-9.671-1.038-3.505-6.535-2.013-5.49 1.513 4.35 14.684 22.268 16.07 35.084 14.415.533-.068 1.061-.161 1.59-.246.011 9.613 6.593 21.274 17.893 17.531 13.013-4.31 10.566-20.362 7.534-30.328-.012-.041-.033-.073-.047-.113a36.517 36.517 0 0 0 6.213-9.012c1.595-3.283-3.314-6.173-4.916-2.874zm-7.824 35.2c-3.353 3.1-7.87 2.172-10.653-1.143-2.488-2.963-2.7-6.833-2.473-10.52a47.417 47.417 0 0 0 4.573-1.561 27.5 27.5 0 0 0 2.524 9.269c1.547 3.318 6.456.43 4.917-2.874a20.377 20.377 0 0 1-1.859-8.632 3.3 3.3 0 0 0-.042-.41 41.673 41.673 0 0 0 4.876-3.22c1.863 6.396 3.471 14.166-1.863 19.091z"/></svg><svg viewBox="0 0 121.981 74.73" id="blue-scare" xmlns="http://www.w3.org/2000/svg"><path d="M120.667 56.987c-2.365-3.985-6.23-5.41-10.365-5.656 3.176-5.849 3.27-13.273-1.147-18.873-5.363-6.8-15-7.747-22.171-3.844-2.438-5.49-7.485-9.59-14.025-9.5a14.813 14.813 0 0 0-12.722 7.846c-3.387-4.042-7.828-6.639-13.857-5.21-7.517 1.782-11.553 7.94-14.508 14.5-6.585-3.8-15.559-3.788-20.36 3.015a13.205 13.205 0 0 0-.24 14.643c-3.7.116-7.167 1.316-9.614 4.738-3.247 4.54-1.428 10.271 2.891 13.318 7.087 5 18.361 1.792 26.36 1.3q15.5-.955 31.049-.922t31.045 1.057c7.821.516 17.644 2.835 24.334-2.536 4.096-3.287 6.177-9.081 3.33-13.876zm-42.761 8.948c-5.314-.185-32.24-.124-40.376.267a3.82 3.82 0 0 0 .263-.319c3.049-4.548 5.829-9.585 9.437-13.716 2.928-3.352 14.909-9.567 13.588.4-.476 3.588 4.606 4.141 6.248 1.692 2.483-3.7 7.58-9.1 12.571-6.182 5.536 3.24-1.913 17.132-1.731 17.858zM25.238 7.082a6.826 6.826 0 0 0-5.829-4.317 5.753 5.753 0 0 0-6.332 5.2 4.009 4.009 0 0 0 .123 1.1c-.008.138-.028.275-.026.414.048 5.509 6.931 7.23 10.549 3.794a5.808 5.808 0 0 0 1.515-6.191zM111.651.01a5.431 5.431 0 0 0-4.7 2.843 8.25 8.25 0 0 0-.617 5.68 4.281 4.281 0 0 0 3.006 3.189 2.585 2.585 0 0 0 1.237.622 6.475 6.475 0 0 0 5.644-1.508 6.552 6.552 0 0 0 2.191-4.825c.016-3.515-3.39-6.195-6.761-6.001z" fill="#231f20"/></svg><svg viewBox="0 0 160.506 37.286" id="blue-simple" xmlns="http://www.w3.org/2000/svg"><g transform="translate(-317.525 -350.497)"><ellipse cx="6.723" cy="5.427" rx="6.723" ry="5.427" transform="translate(328.433 350.497)"/><path d="M418.086 383.035h-6.354c-3.763-.751-7.582-2.9-11.537-6.442v-6c3.827-.788 6.658-3.552 6.658-6.851 0-3.912-3.976-7.084-8.881-7.084s-8.881 3.172-8.881 7.084c0 3.3 2.832 6.063 6.659 6.851v6.138a18.623 18.623 0 0 1-11.489 6.308h-6.4a2.222 2.222 0 0 0-.263 4.429 28.348 28.348 0 0 0 6.936.016H411.4a19.742 19.742 0 0 0 7.1-.038 2.223 2.223 0 0 0-.41-4.407zm-22.62 0a25.233 25.233 0 0 0 2.662-2.332q1.512 1.281 3.028 2.332zM324.662 364.3a2.211 2.211 0 0 1-.494-.057l-4.912-1.115a2.222 2.222 0 1 1 .984-4.334l4.912 1.116a2.223 2.223 0 0 1-.49 4.39z"/><ellipse cx="6.723" cy="5.427" rx="6.723" ry="5.427" transform="translate(453.677 350.497)"/><path d="M470.893 364.3a2.225 2.225 0 0 1-2.165-1.731 2.276 2.276 0 0 1-.055-.495 2.22 2.22 0 0 1 1.73-2.164l4.913-1.116a2.222 2.222 0 1 1 .984 4.334l-4.912 1.115a2.213 2.213 0 0 1-.495.057z"/></g></svg><svg viewBox="0 0 144.684 69.433" id="green-angry" xmlns="http://www.w3.org/2000/svg"><path d="M44.511 6.996c-.342-3.165-5.346-3.2-5 0 .163 1.505 1.328 7.084.314 8.153-.625.659-4.734.183-5.907.228l-6.892.266-24.613.95c-3.207.123-3.223 5.124 0 5l14.5-.56c-.316 5.454 1.127 11.639 7.875 11.573 6.827-.066 9.762-6.339 10.151-12.268l.95-.037c2.679-.1 6.745.42 8.5-2.225 1.822-2.747.446-8.072.122-11.08zm-19.1 20.54c-3.89.658-3.9-3.774-3.557-6.694l8.089-.312c-.198 3.079-1.18 6.438-4.532 7.006zM143.878 2.387c-.343-3.165-5.346-3.2-5 0 .163 1.505 1.327 7.084.314 8.153-.625.659-4.734.183-5.908.228l-6.891.266-24.613.949c-3.207.124-3.223 5.124 0 5l14.5-.559c-.316 5.454 1.127 11.639 7.875 11.573 6.827-.066 9.761-6.339 10.151-12.268l.949-.037c2.68-.1 6.745.42 8.5-2.225 1.828-2.747.448-8.073.123-11.08zm-19.1 20.539c-3.891.659-3.9-3.774-3.557-6.693l8.089-.312c-.199 3.079-1.178 6.438-4.528 7.005zm-3.305 34.465c-3.737-5.088-12.129-5.493-18.206-6.15a2.769 2.769 0 0 0-2.732-.321c-18.153-2.3-36.628-2.7-54.906-2.607-9.063.046-18.29.546-27.069 2.971C12.178 53.047 2.034 56.036.586 63.542a2.67 2.67 0 0 0 3.792 2.853 2.634 2.634 0 0 0 1.517.229c9.723-1.335 19.628-.089 29.369.449 9.44.523 18.887.9 28.337 1.192s18.905.489 28.36.649q6.846.117 13.693.211c3.957.056 8.669.859 12.517-.374 4.988-1.598 6.302-7.274 3.302-11.36zM7.46 61.477c2.837-2.607 7.824-3.988 10.8-4.9a67.768 67.768 0 0 1 11.271-2.363l.583 7.558c-7.579-.462-15.097-.995-22.654-.295zm53.208 1.691q-12.77-.417-25.53-1.113-.321-4.179-.644-8.357c7.569-.581 15.194-.4 22.774-.28 5.886.1 11.772.235 17.655.476a45.176 45.176 0 0 0 .343 9.682q-7.299-.169-14.598-.404zm29.336.709c-3.246-.057-6.493-.13-9.74-.2-.006-.073 0-.142-.013-.217a39.862 39.862 0 0 1-.35-9.342c2.143.114 4.286.238 6.426.392q6.033.435 12.043 1.142l-2.372 8.318q-2.997-.042-5.994-.093zm24.832.345q-1.656.024-3.313-.019c-2.609-.024-5.217-.072-7.825-.11-.841-.012-1.682-.027-2.523-.04l2.258-7.918c3.987.3 8.774.7 11.5 2.512q3.728.883-.097 5.579z"/></svg><svg viewBox="0 0 261.008 347.159" id="green-body" xmlns="http://www.w3.org/2000/svg"><g fill="#6ae2af"><path d="M3.831 328.799l.948 2.4c.922.559 3.018.243 2.6-1.3zM2.79 300.004a3.25 3.25 0 0 0 .934 1.356 10.541 10.541 0 0 1-.376-1.274 7.16 7.16 0 0 1-.558-.082zm48.473 44.385a4.6 4.6 0 0 0 0-.5c-.2.283-.261.483 0 .5zM3.155 297.888a2.531 2.531 0 0 0 .031 1.3 8.891 8.891 0 0 1-.031-1.3zm136.485 45.149a8.461 8.461 0 0 1-1.343-2.527c.448 1.999-3.824 2.71 1.343 2.527z"/><path d="M4.486 299.99c-.762-.158-1.138-.39-1.3-.8a7.969 7.969 0 0 0 .162.9 1.561 1.561 0 0 0 1.138-.1zM97.104 2.065l4.621.415a23.753 23.753 0 0 0-4.621-.415zm159.961 232.706l.362.988a.939.939 0 0 0-.362-.988zM115.435 2.065a6.586 6.586 0 0 0 2.6 1.943 2.372 2.372 0 0 0 .537-.725zM79.122 342.413c-.073-.012-.133-.03-.208-.041a.391.391 0 0 0 .208.041zM9.197 313.776l-.268.516a.474.474 0 0 0 .268-.516z"/><path d="M258.978 183.762c-1.064 2.741-5.015 2.111-5.4-.129l3.492-.9c-2.158-1.447-1.318 2.34-3.961-.63.4-2.854 3.975-1.919 5.111-.28l-1.212-3.469c1.045-.2 1.6.61 2.926.821-2.172-1.423 3.508-5.989-.262-8.043l1.04-.2c.029-7.637-1.174-11.1-1.349-17.322-3.018-.122-2.348-2.554-4.787-4.408.962-4.572 3.333-9.647 3.079-15.156-1.5-3.871-2.555-1.13-4.347-2.871 2.746-.285 2.489-5.786 4.462-2.932a65.262 65.262 0 0 0-2.777-16.807c-1.13.907-1.617 1.928-2.555 1.4-.452-1.517 1.153-3.452 2.474-3.234l.282.4c-4.044-9.216 7.569-21.216 2.566-28.723l-2.984-7.745c.476-3.566 2.066 2.139 3.766-.5-4.584-8.361.667-13.21-2.388-20.1 4.054-2.664 3.911-7.392 3.4-12.353a63.866 63.866 0 0 1-.56-7.388l.035-.918.076-1.571c.066-1.039.164-2.06.3-3.066a32.1 32.1 0 0 1 1.351-5.9q-.954.7-1.91 1.361a3.117 3.117 0 0 1-.1-3.566 13.105 13.105 0 0 0 1.632-3.756c-1.483 1.155-1.716 4.468-2.754 2.886-.4-4.569-.575-9.112-.586-13.9-6.068.011-11.975-.2-18.113-.536-3.067-.17-6.187-.373-9.387-.6l-1.2-.086-.6-.043-.3-.022-.174-.022-1.359-.179-2.721-.376c-7.259-1.028-14.533-2.228-21.7-2.892-6.338-.477-3.6 9.206-11.586 4.958l2.268-3.3c-12.79 3.965-26.152-.137-38.672 3.225.747-.762.768-1.753 1.99-1.741-2.644-2.4-9.779-.117-9.824 1.843-1.95-.224-.452-1.772-1.653-2.768-2.653-1.416-6.658 3.064-8.068.676-.156-.254.208-.506.615-.7-2.252.657-7.281-.294-5.782 2.212-4.7-1.321-8.989 1.233-12.738-.408-2.444 3.1-8.044-1.491-8.82 2.888.337-4.524-8.238-3.649-11.21-1.521.995-1.367-2.583-1.416-1.418-3.31-3.391.063-6.5.9-5.907 3.227-6.247-5.412-12.556 4.356-16.073-2.58a238.667 238.667 0 0 1-28.453 5.137c.327-4.512 10.015-.45 9.627-5.186-8.6 1.858-13.554 5.73-22.077 4.641-2.207-.615 1.253-1.955 2-2.727a36.789 36.789 0 0 1-6.212.753l-2.4.048-2.519.015-4.991-.015c-3.3-.015-6.578-.017-9.675.124a48.322 48.322 0 0 0-8.408.981l.148.81c.664.142 1.336.942 2 2.048a44.44 44.44 0 0 1 2.328 4.841c1.334 3.136 2.514 5.972 3.351 6.933-1.409-1.355-2.235-1.715-2.77-1.4-.569.323-.819 1.327-1.121 2.281s-.656 1.871-1.433 2.075c-.776.182-1.975-.263-3.968-2.572.417 1.739 1.459 3.894 2.932 3.925-.43 1.926-1.29 2.615-2.964-.082.6 4.38 1.483 5.7 2.211 6.884a4.529 4.529 0 0 1 1.277 3.772c-1.067-.016-1.478-.935-2.73-1.406 2.077 2.3 4.155 4.622 3.253 8.47-.559-.2-1.265.11-1.427-.566.492 6.414 5.459 11.035 3.49 18.149-4.627-2.139-1.523 2.466-5.529 2.851l1.2 3.9 1.944-1.565c-.069 3.415 2.85 6.433 1.538 9.369l-1.651-2.537.76 6.4 1.52-3.622c2.064 3.456 5.069-.37 3.953 4.176-.406-.924-.049 3.416-2.41 5.2 0 0 0-.012-.011-.012 1.276 1.69 2.621 3.428 1.625 5.954-1.282.656-4.431-.528-5.284-.1 3.348 1.666.929 8 4.5 10.109a4.578 4.578 0 0 0-3.368-.509l2.719 1.4c-.87 1.582-1.292 1.814-2.968 1.557-.5 4.758 5.082-1.512 2.892 4.136-.22-.443-.626-.232-1.04-1.155-1.142 5.673 1.727 10.96.387 16.172-4.031 1.538-.987-4.554-4.388-2.794.731 7.516 4.834 15.563 3.883 22.835l.445-1.355c5.691 1.008-2.81 5.416-.128 9.094-.422-.9-3.16-1.18-2.526-.937-.914 4.981 1.4 10.183 3.192 17.73l-1.465-.935c-1.3 2.935-.752 7.73-1.418 10.9 1.46.941 1.224 2.754 3.349 1.652-8.327 9.776 4.464 18.648-2.473 27.322-.016-1.037-1.279-2.472-1.281-1.647l1.336 7.39c2.479-.585 1.5-.969 3.432-2.521a5.272 5.272 0 0 1 1.414 1.388v2.15c-1.452-.585-3.1 1.665-4.17 2.777.76-.24 1.6.252 2.371.13-2.92 2.555.209 2.012 1.8 2.88v2.989l-1.083-.232a16.243 16.243 0 0 0 1.083 2.286v3.789c-1.593-.028-.724-2.276-2.768-2.393.093 1.679 1.8 3.334 2.768 4.941v3.436c-.066.073-.115.147-.193.22-.8-1.268-.812-3.093-1.606-4.362-3.366 2.945-2.512 3.286-3.047 5.473l.077-.215-1.525 5.058.912-1.288c6.946 3.471 2.176 7.06 5.382 11.587v.159c-3.494-3.426-2.03.065-5.049-.283-.9 1.286-1.914 3.24-2.828 2.684 2.622 2.379-2.064 3.973 1.768 7.331-1.042.151-.1 2.546-2.73 2.009.823 3.095 1.822-.731 3.134-.471 3.576 4.77-4.336 11.211.572 18.072 1.359 3.987 3.4 5.786 5.133 8.215v4.482a6.486 6.486 0 0 1-1.641-1.714c-1.541 2.989-1.258 5.238-.06 8.055-.912-.571-1.685.017-2.859.876.272 2.26 3.809 1.511 2.266 4.492a14.992 14.992 0 0 1-4.2-2.258c.963 2.665 2.918 5.3 3.861 8.053-1.823.731-2.767-1.664-3.956-2.636.82 3.1 1.651 8.03 4.537 8.987l.763-1.472a2.814 2.814 0 0 1-2.738-.768c-2.263-2.656 1-3.831 2.052-3.981l.67 1.964a5.428 5.428 0 0 0 1.309-.612v8.86c-1.764-1.444-4.241-2.625-6.874-1.676 3.415 1.8 1.989 2.232 6.053 4.167a2.06 2.06 0 0 1-2.447 2.435c.911.547-.781 2.4 1.451 3.23a5.654 5.654 0 0 0 1.817-2.04v5.094h2.162c-.6 4.447-2.212 8.927 4.2 12.028l4.689-2.847 1.51 2.258-3.946.142c2.238 2.126 3.658.246 5.246-1.045a3.869 3.869 0 0 0 1.965 2.488l4.6-4.449c.558 1.824-2.064 3.616 1.025 4.622 2.156-2.065-2.068-4.084 1.5-5.442 2.243 2.117 1.589 3.84 4.221 2.034a1.937 1.937 0 0 1-1.231 2.49c2.343-1.438 6.2-.608 7.41-3.083 2.338 2.612 7.912-.679 7.681 3.728.736-1.055 4.127-3.46 6.279-3.643-3.932 5.276 8.056.31 7.017 5.967 2.91-4.744 10.512-2.107 15.666-4.739-.246.32-.693.917-1.1.939 2.723.435 3.585 1.807 5.4 2.679.373-3.918 4.891-4.814 7.326-7.231 3.556 3.781-2.159 4.6-1.043 8.232-.179-3.176 6.179-3.171 4.969-5.815 2.72 2.339 2.344 1.135 3.745 4.382.477-4.9 2.532-.828 4.787-3.838 3.936 2.415 1.014 4.59 5.337 3.1 2.057 1.5-1.788 3.238-1.788 3.238 4.4.08 2.067-3.616 3-5.738 5.255-1.047 2.432 2.722 4.22 4.61 3.282-.977 5.8-4.368 8.244-4.224.183.608.659.83.1 1.592 3.469-2.937 10.3-.144 14.338-3.833a2.191 2.191 0 0 1 .528.915 12.1 12.1 0 0 1-.621-5.068c1.974-.063 3.663-2.334 4.405.081-1.209-.071-1.31.9-1.877 1.657l2.068-1.05c1.862 3.472-2.823 1.2-2.823 3.772 4.033-1.13 8.733-4 11.823-3.022.645 3.4-7.226 1.143-3.1 4.163l-4.781-1.3c3.654 5.359-2.905-.374.452 5.359 6.291.984 7.038-1.731 13.313-.74 1.414-1.887-.467-2.793.947-4.68 8.921-3.391 7.022 8.54 13.58 4.016 1.7-2.263 2.356-6.56 7.026-4.287l-1.592 3.84c6.091.378 3.477-5.52 9.857-2.937-1.134 1.509-4.788 1.272-3.866 1.729 4.133 3.032 2.923-2.178 6.1-2.178l.659 3.4c6.485-.535 13.629-2.991 20.812-3.611-.4 1.011-1.628 2.075.052 3.115a47.32 47.32 0 0 1 14.159-.177l1.795.234.448.064c.167.022.242.044.549.067l1.549.14 6.31.634 13.089 1.47a27.44 27.44 0 0 0 3.555-2.935c1.3.034 3.759 1.326 2.8 1.895 3.626.557 3.248.092 2.139-.657s-2.786-1.781-2.067-2.358l.373-.015c0-2.578 1.874-1.908 2.772.783-.667-3.068-1.361-6.5-1.973-9.928s-1.142-6.854-1.483-10.1a74.645 74.645 0 0 1-.357-4.759l-.036-1.153c0-.356-.007-.711-.011-1.063 0-.486.018-.967.054-1.439a12.117 12.117 0 0 1 1.427-5.116l.936 1.151c1.278-4.595-6.456-5.185-3.519-9.446l.558.817c1.365-9.972-1.52-20.992 3.235-28.6-4.537-1.446 2.023-9.869-4.3-10.511 3.136-5.693 4.265-4.063 6.374-12.082.291-2.141-3.951-3.192-4.611-5.84l3.309-.064-3.471-3.6 3.956-1.913-.849-2.484a2.639 2.639 0 0 1-2.439 1.953c-1.5-3.88 2.306-9.457 4-9.553l-2.8-9.177c.985.151 1.491 1.033 2.032 1.974-1.761-3.341 3.848-.257.994-4.4-.75.6-1.971-.325-2.639-.427 2-2.238 2.018-7.331 1.174-11.1l2.281.724c.58-6.806-1.094-14.349-1.055-21.99zm-249.622 11.3c.259-.034.555-.065.863-.09v1.688a5 5 0 0 1-.86-1.597zm.018 81.012l.845-.363v1.354a9.047 9.047 0 0 1-.841-.99zm.845 20.589v1.882l-1.178-1.288a4.262 4.262 0 0 1 1.181-.593zm-1.937 3l1.937.715v4.783c-.941-1.886-2.082-3.856-1.934-5.496zm.71 21.033a1.477 1.477 0 0 1 1.227-.207v2.12a7.519 7.519 0 0 0-1.224-1.911zm201.686 18.046l-2.122.159 2.122-.215zm4.894-.21c-.3-.972.024-1.97.894-1.919-.472.647 1.565 1.209 2.854 2.029a33.65 33.65 0 0 0-3.748-.11z"/><path d="M258.223 220.956a9.753 9.753 0 0 0 .6.981 14.378 14.378 0 0 1-.6-.981zM2.278 5.4c-.582.037-1.272.016-1.95-.007-.074 1.789-.157 3.451 1.5 4.588l-.6-2.7a.936.936 0 0 1 .408.006 3.368 3.368 0 0 1-.587-1.225A3.059 3.059 0 0 1 2.278 5.4zm134.279-3.196a2.24 2.24 0 0 0 .616-.261 8.502 8.502 0 0 0-.616.261zM2.584 42.498c-.009-.123-.028-.242-.034-.367a1.535 1.535 0 0 0 .034.367z"/><path d="M1.648 7.305v-.011h-.009zm256.903 236.434l-.76.012.667.7zM5.278 215.995a1.873 1.873 0 0 0 .772-.583 1.475 1.475 0 0 0-.772.583zm.1 18.574l-1.074 2.71a12.176 12.176 0 0 0 1.074-2.71zm-1.5 14.73a5.9 5.9 0 0 0 1.292.288c.009-.012.009-.02.023-.029zM2.278 5.4a3.669 3.669 0 0 0 .9-.127c1.9-.545.436-.33-.9.127zm5.105 79.401a12.242 12.242 0 0 1-1.425-2.24c-.231 1.24-.291 2.204 1.425 2.24zM96.598 2.02c-.009.017 0 .024-.009.049.179-.01.337 0 .515 0zM6.011 79.32a3.625 3.625 0 0 0-.053 3.241 5.43 5.43 0 0 0 .053-3.241zM2.387 313.847a1.043 1.043 0 0 1 .485.084l-.359-.794zm.485.084l.356.788c0-.362-.023-.676-.356-.788zm1.116 2.447l-.76-1.659c-.007.574-.102 1.283.76 1.659zm-1.176-22.963a2.633 2.633 0 0 0 1.094.224zm.778-5.702c-.249 1.413-2.334 3.546-1.649 5.518l.871.184c-1.627-.927 2.622-4.359.778-5.702zm1.034-172.654l-1.705 2 2.515.953z"/></g></svg><svg viewBox="0 0 134.763 55.74" id="green-scare" xmlns="http://www.w3.org/2000/svg"><g fill="#231f20"><path d="M133.451 18.059c-3.468-8.286-13.359-11.791-21.541-8.746a2.54 2.54 0 0 0-1.255.97c-6.768 3.38-8.4 13.991-6.739 21 2.116 8.937 12.882 11.88 20.659 8.733a16.731 16.731 0 0 0 8.876-21.957zm-7.285 15.226c-3.917 3.626-11.051 4.22-15.177.587-4.494-3.957-3.512-19.316 3.87-19.653a2.4 2.4 0 0 0 1.822-.888 11.6 11.6 0 0 1 10.976 4.6 11.987 11.987 0 0 1-1.491 15.354z"/><path d="M122.565 21.597a17.1 17.1 0 0 0-1.357-5.51 2.51 2.51 0 0 0-3.926-.506 13.036 13.036 0 0 0-2.539 4.562c-1.341 2.743-1.993 8.259-.56 10.861a3.453 3.453 0 0 0 3.559 1.774 2.538 2.538 0 0 0 3.914-1.319c.895-2.872 1.862-6.769.909-9.862zM10.189 31.789c7.776 3.147 18.543.2 20.659-8.733 1.659-7.009.029-17.62-6.739-21a2.545 2.545 0 0 0-1.255-.97C14.671-1.959 4.78 1.547 1.312 9.832a16.731 16.731 0 0 0 8.877 21.957zM7.107 9.701a11.6 11.6 0 0 1 10.976-4.6 2.4 2.4 0 0 0 1.821.888c7.382.337 8.364 15.7 3.87 19.654-4.126 3.632-11.26 3.038-15.176-.587A11.987 11.987 0 0 1 7.107 9.701z"/><path d="M12.198 13.369a17.147 17.147 0 0 1 1.357-5.51 2.512 2.512 0 0 1 3.927-.506 13.05 13.05 0 0 1 2.538 4.562c1.341 2.743 1.993 8.259.561 10.862a3.455 3.455 0 0 1-3.56 1.773 2.538 2.538 0 0 1-3.914-1.319c-.89-2.872-1.862-6.769-.909-9.862zm99.367 39.623c-1.615-8.992-11.239-12.9-18.048-8.727a9.053 9.053 0 0 0-5.567-5.572 9.975 9.975 0 0 0-6.792.209 10.128 10.128 0 0 0-2.651 1.6 5.986 5.986 0 0 0-.868 1.05 10.628 10.628 0 0 0-19.089-2.738c-2.3-3.287-5.618-5.691-10.014-5.3a7.781 7.781 0 0 0-7.278 8.026 10.823 10.823 0 0 0-8.483-.682 11.044 11.044 0 0 0-7.3 9.66c-.215 3.2 4.741 3.867 4.957.65a6.085 6.085 0 0 1 10.645-3.77c2.029 2.12 5.554-.272 4.37-2.48a2.568 2.568 0 0 0 .812-2.778c-1.756-5.717 5.851-3.138 7.466-1.467a13.77 13.77 0 0 1 2.789 5.108c.862 2.365 4.488 1.749 4.783-.645 1.007-8.173 12.524-7.594 12.136.8-.066 1.434 1.118 3.25 2.825 2.8 2.338-.614 2.908-1.634 4.562-3.333 3.868-3.973 9.52-1.51 8.07 4.282-.591 2.363 3.189 3.923 4.456 1.856 3.6-5.881 11.983-4.982 13.264 2.149.568 3.148 5.526 2.481 4.955-.698z"/></g></svg><svg viewBox="0 0 126.508 49.539" id="green-simple" xmlns="http://www.w3.org/2000/svg"><path d="M125.192 29.405a2.371 2.371 0 0 0-2.279-1.735q-38.88.4-77.726 2.252-9.357.45-18.712.987c-5.611.322-11.519.181-17.051 1.265-6.617 1.3-12.857 8.452-7.232 14.6 2.058 2.249 5.392-1.1 3.342-3.342-2.564-2.8 1.473-5.75 3.763-6.4a33.1 33.1 0 0 1 6.891-.784c3.918-.248 7.839-.47 11.759-.691a47.824 47.824 0 0 1 10.32 12.651 2.393 2.393 0 0 0 4.319-.565 29.143 29.143 0 0 0 1.442-12.934q9-.439 18.007-.806 23.537-.936 47.089-1.32a2.362 2.362 0 0 0 1.021 1.814 38.256 38.256 0 0 1 11.945 13.977c1.107 2.161 4.358 1.044 4.4-1.193a97.215 97.215 0 0 0-1.298-17.776zM39.32 41.087a51.467 51.467 0 0 0-4.886-5.884c1.639-.087 3.278-.168 4.917-.252a23.205 23.205 0 0 1-.035 6.136zm76.013-8.586c1.849-.026 3.7-.056 5.547-.077.3 2.145.552 4.291.7 6.443a43.321 43.321 0 0 0-6.251-6.366zM20.243 3.267a4.764 4.764 0 0 0-6.266 3.2 5.315 5.315 0 0 0 .8 4.39l.008.157a2.462 2.462 0 0 0 1.735 2.279 5.763 5.763 0 0 0 6.994-3.143 5.216 5.216 0 0 0-3.271-6.883zm100.292-.433a5.5 5.5 0 0 0-7.087-2.3 4.273 4.273 0 0 0-2.237 4.424 1.888 1.888 0 0 0-.052 1.433 5.166 5.166 0 0 0 6.46 3.036 4.629 4.629 0 0 0 2.916-6.593z" fill="#231f20"/></svg><svg viewBox="0 0 211.009 370.159" id="pink-body" xmlns="http://www.w3.org/2000/svg"><g fill="#ff80de"><path d="M46.464 355.949c-.354-.82.2-1.569.382-2.148a10.921 10.921 0 0 0-2.432 2.642 5.915 5.915 0 0 0-.91 4.11 9.159 9.159 0 0 1 2.115-2.088 7.451 7.451 0 0 0 2.124-2.615c1.263-.18 2.06 1.409 1.755 2.587.505-.76 1.962.937 2.74-1.065-1.535-2.704-3.377-2.997-5.774-1.423zm-17.898-2.356a2.212 2.212 0 0 0 1.363.009 8.574 8.574 0 0 1-1.1-.413c-.087.143-.161.265-.263.404zm.017-13.573l.711.175c-.193-.028-.478-.152-.711-.175zm54.727 27.369c.02-.2-.008-.327 0-.5-.144.283-.188.483 0 .5zm-55.226-14.582a5.882 5.882 0 0 1-.985-.743 2.261 2.261 0 0 0 .985.743zm119.008 13.23a9.906 9.906 0 0 1-.969-2.527c.323 1.999-2.76 2.71.969 2.527zm-119.008-13.23a7.113 7.113 0 0 0 .745.382 1.427 1.427 0 0 0 .336-.973c-.391.527-.705.698-1.081.591zM44.483 3.314c1.37-.206 2.743-.3 4.111-.372a13.141 13.141 0 0 0-4.111.372zm163.691 197.823l.26.991a1.157 1.157 0 0 0-.26-.991zM59.644 2.065a5.221 5.221 0 0 0 1.878 1.943 2.494 2.494 0 0 0 .387-.725zm43.772 363.348c-.052-.012-.095-.03-.15-.041a.218.218 0 0 0 .15.041zm105.746-177.755zm-.129-.307c.036.094.084.2.129.307-.044-.103-.088-.205-.129-.307zM41.053 354.104l.33.364a.439.439 0 0 0-.33-.364zM1.86 98.934c-.007-.124-.02-.243-.025-.368a2.129 2.129 0 0 0 .025.368zM.423 70.635c-.01 1.655-.659 3.834.924 3.7l-.4-1.61a1.615 1.615 0 0 1 .3-.243c-.31-.062-.611-.97-.824-1.847zM74.887 2.204a1.429 1.429 0 0 0 .445-.261 4.992 4.992 0 0 0-.445.261zM1.264 72.483v-.007h-.006z"/><path d="M209.55 149.984c-.766 2.748-3.609 2.117-3.883-.13l2.513-.9c-1.553-1.451-.948 2.347-2.85-.631.29-2.862 2.86-1.925 3.678-.281l-.872-3.48c.752-.2 1.148.612 2.106.824-1.563-1.427 2.524-6.006-.189-8.066l.749-.2c.021-7.659-.845-11.132-.971-17.372-2.172-.121-1.69-2.561-3.445-4.42.691-4.584 2.4-9.674 2.215-15.2-1.08-3.882-1.838-1.134-3.128-2.879 1.976-.286 1.791-5.8 3.211-2.941a89.271 89.271 0 0 0-2-16.854c-.812.91-1.163 1.933-1.838 1.4a3.391 3.391 0 0 1 .412-2.275c.369-.625.876-1.2 1.357-1.058l.211.463a30.343 30.343 0 0 1-.853-8.589c.069-3.021.252-6.218.292-9.43-.015-1.591-.012-3.2-.163-4.737-.067-.77-.139-1.534-.246-2.273s-.257-1.451-.417-2.143a11.784 11.784 0 0 0-3.14-6.121c-.855-1.172-1.789-2.254-2.681-3.33-.947-1.038-1.847-2.083-2.827-3.019-.785-1.81-.214-1.6.523-1.339s1.639.587 1.422-1.177a32.006 32.006 0 0 1-7.365-8.587c-1.845-2.822-3.745-5.531-6.951-6.736-.287-4.926-4.348-8.078-8.825-10.043-2.249-.989-4.59-1.755-6.736-2.585-.537-.208-1.06-.433-1.566-.68s-1.005-.466-1.478-.743a12.056 12.056 0 0 1-1.36-.91 9.481 9.481 0 0 1-1.235-1.062l.145 1.842c-.984.66-1.457.289-1.865-.326-.407-.6-.74-1.454-1.376-1.764.063 1.4 1.727 1.9.551 2.678a253.64 253.64 0 0 0-5.513-.129l-2.669-.023q-1.167-.009-2.34-.073a78.728 78.728 0 0 1-9.45-1.17c-6.333-1.118-12.7-2.706-18.957-3.509-4.573-.477-2.595 9.206-8.361 4.958l1.636-3.3c-9.23 3.965-18.873-.137-27.909 3.225.539-.762.554-1.753 1.436-1.741-1.908-2.4-7.057-.117-7.09 1.843-1.407-.224-.326-1.772-1.193-2.768-1.914-1.416-4.8 3.064-5.822.676-.113-.254.15-.506.443-.7-1.625.657-5.254-.294-4.173 2.212-3.391-1.321-6.487 1.233-9.192-.408-1.764 3.1-5.806-1.491-6.366 2.888.22-2.261-1.586-3.177-3.747-3.1a8.5 8.5 0 0 0-5.7 2.6c.678-1.547-2.394-.883-1.674-2.974a8.914 8.914 0 0 0-3.716 1.884 2.324 2.324 0 0 0-.711 2.819 4.171 4.171 0 0 0-2.243-.543 4.671 4.671 0 0 0-1.99.544 12.538 12.538 0 0 0-3.244 2.814c-1.935 2.1-3.4 3.983-6.093 2.006a86.273 86.273 0 0 0-8.617 12.3 101.367 101.367 0 0 0-6.248 12.7c-1.355-1.379-.251-3.763.969-5.911 1.193-2.169 2.44-4.174.993-5.621a54.4 54.4 0 0 0-3.745 11.865 56.837 56.837 0 0 1-3.485 11.085c-.557.981-.813.493-.962-.4-.133-.88-.131-2.155-.27-2.7-.89 4.728-2.089 8.992-2.92 13.328a35.058 35.058 0 0 0-.486 12.884 1.109 1.109 0 0 1 1.427.277 9.488 9.488 0 0 1 1.629 2.348c.507.972 1.01 1.876 1.451 2.613s.826 1.272 1.129 1.335c-4.538-2.389-1.141 7.053-6.875 3.259.3.926 1.049 2.087 2.109 1.875-.309 1.374-.928 1.811-2.133.417.862 5.04 2.546 3.249 2.51 7.816-.768-.016-1.063-.937-1.965-1.41 1.5 2.312 2.991 4.636 2.342 8.495-.4-.2-.911.11-1.027-.568.354 6.432 3.928 11.066 2.511 18.2-3.33-2.145-1.095 2.473-3.979 2.859l.86 3.91 1.4-1.569c-.049 3.425 2.052 6.451 1.107 9.4l-1.188-2.545.547 6.418 1.094-3.633c1.486 3.465 3.648-.371 2.845 4.187-.292-.926-.036 3.426-1.735 5.211 0 0 0-.011-.007-.011.918 1.694 1.886 3.437 1.169 5.97-.922.658-3.189-.529-3.8-.1 2.41 1.671.669 8.021 3.237 10.138a2.505 2.505 0 0 0-2.425-.511l1.958 1.4c-.627 1.587-.93 1.819-2.136 1.561-.359 4.772 3.657-1.516 2.081 4.148-.159-.445-.451-.232-.749-1.158-.821 5.689 1.243 10.99.279 16.218-2.9 1.542-.71-4.567-3.158-2.8.526 7.537 3.479 15.606 2.794 22.9l.321-1.36c4.1 1.011-2.023 5.432-.092 9.12-.3-.9-2.275-1.183-1.818-.94-.658 4.995 1.007 10.212 2.3 17.78l-1.054-.937c-.939 2.943-.542 7.751-1.021 10.931 1.051.944.881 2.762 2.41 1.658-5.992 9.8 3.213 18.7-1.779 27.4-.012-1.04-.921-2.479-.923-1.652l.967 7.409c1.784-.586 1.081-.971 2.47-2.527a7.134 7.134 0 0 1 1.878 4.865c-1.182-3.332-2.866.029-3.861 1.468.547-.242 1.15.252 1.706.13-3.175 3.87 3.59.649 1.452 5.933l-.937-.28c.479 1.978 1.718 3.8 1.45 5.933-2.065.884-.963-2.1-2.662-2.241.118 2.995 3.91 5.911 1.853 8.622-.575-1.272-.585-3.1-1.156-4.374-2.423 2.952-1.808 3.294-2.193 5.488l.055-.216-.548 2.536c-.18.865-.336 1.864-.5 2.805l.628-1.462a7.193 7.193 0 0 1 3.246 6.049c.208 2.123.268 4.583 2.449 6.588a15.077 15.077 0 0 0-2.073-1.758c-.412-.232-.613-.144-.762.091-.306.468-.383 1.514-1.554 1.625-.392 1.551-.706 3.957-1.454 3.554 1.2 1.008 1.063 2.2 1.108 3.533a4.217 4.217 0 0 0 2.1 3.9c-.326.256-.138.936-.108 1.6s-.065 1.3-1.035 1.505c1.681 2.96.927-1.465 1.9-1.641 2.012 1.768 2.281 4.918 3.1 8.322.784 3.355 2.109 7.017 5.373 8.47a15.265 15.265 0 0 0 1.566 1.171 10.822 10.822 0 0 0 1.45.73 11.483 11.483 0 0 0 2.611.736c.831.164 1.642.3 2.514.506a10.628 10.628 0 0 1 1.33.427 12.228 12.228 0 0 1 1.466.627 1.413 1.413 0 0 1-1.159 1.823 4.065 4.065 0 0 1-1.5-.008c1.2 3.1 2.924 4.349 5.319 4.971-.732.388-.645 1.361-.44 2.764 1.782 1.018 2.418-2.234 4.079.474a8.853 8.853 0 0 1-3.1 2.337c2.4.621 5.006.242 7.377.437.116 1.873-2.025 1.767-3.151 2.323a20.02 20.02 0 0 0 4.668.808 3.763 3.763 0 0 0 3.586-1.57l-1.026-1.132a2.427 2.427 0 0 1-1.155 2.244 1.612 1.612 0 0 1-2.4-.815 4.847 4.847 0 0 1-.255-2.38c.552.073 1.117.082 1.671.108-.067-3.032-1.5-3.473-3.382-3.563-.938-.044-1.992.016-2.976-.114a4.405 4.405 0 0 1-2.588-.972q1.394-1.36 2.711-2.78a35.5 35.5 0 0 1-4.1.855c-.146-1.407.494-3.636 1.992-3.131-.473-1.62-1.019-1.608-1.52-1.67-.5-.044-.98-.1-1.2-1.71.009-.447.171-.528.4-.52l-2.215-.674c.744-.354 1.174-2.541 1.85-1.089a5.6 5.6 0 0 0-1.586-2.453 8.37 8.37 0 0 0-1.885-1.109c-1.229-.533-2.169-1.058-1.753-2.742l.352.107c-2.056-1.921-2.592-1.611-3.186-.907-.6.68-1.221 1.78-3.6.763a87.688 87.688 0 0 1 2.706-6.127 60.089 60.089 0 0 0 36.023 26.324l-.376 1.355.394-.151c.031-.4.057-.792.071-1.183.59.149 1.187.28 1.784.411l-1.855.772c-.141 1.822-.455 3.659-.5 5.417a.838.838 0 0 0-.971-.346q-.481 1.641-1.008 3.278l2.084-.817.007-.019a7.175 7.175 0 0 0 3.362 5.163l3.384-2.847 1.09 2.258-2.848.142c1.615 2.126 2.64.246 3.786-1.045a3.881 3.881 0 0 0 1.418 2.488l3.322-4.449c.4 1.824-1.49 3.616.739 4.622 1.556-2.065-1.492-4.084 1.084-5.442 1.619 2.117 1.147 3.84 3.046 2.034a2.177 2.177 0 0 1-.888 2.49c1.691-1.438 4.475-.608 5.348-3.083 1.686 2.612 5.709-.679 5.543 3.728.531-1.055 2.978-3.46 4.531-3.643-2.837 5.276 5.815.31 5.064 5.967 2.1-4.744 7.587-2.107 11.307-4.739-.178.32-.5.917-.8.939 1.965.435 2.587 1.807 3.9 2.679.268-3.918 3.529-4.814 5.287-7.231 2.566 3.781-1.559 4.6-.753 8.232-.129-3.176 4.459-3.171 3.586-5.815 1.963 2.339 1.692 1.135 2.7 4.382.344-4.9 1.827-.828 3.455-3.838 2.84 2.415.731 4.59 3.851 3.1 1.485 1.5-1.291 3.238-1.291 3.238 3.178.08 1.493-3.616 2.167-5.738 3.792-1.047 1.755 2.722 3.046 4.61 2.368-.977 4.184-4.368 5.949-4.224.132.608.475.83.073 1.592 2.5-2.937 7.431-.144 10.348-3.833a2.512 2.512 0 0 1 .381.915 16.5 16.5 0 0 1-.448-5.068c1.424-.063 2.643-2.334 3.179.081-.873-.071-.946.9-1.355 1.657l1.493-1.05c1.343 3.472-2.037 1.2-2.037 3.772 2.937-1.145 6.2-3.953 8.761-3.117.333 1.7-1.117 2.03-2.236 2.3-.584.142-.953.238-1.072.507-.09.263.057.7.879 1.439-1.229-.417-2.323-.861-3.49-1.291 2.637 5.359-2.1-.374.326 5.359a7.929 7.929 0 0 0 2.78.16 13.972 13.972 0 0 0 2.455-.607 15.337 15.337 0 0 1 5.806-1.062c.993-2.086-.7-2.674.252-4.783a6.69 6.69 0 0 1 2.235-1.149 3.133 3.133 0 0 1 1.742-.059 6.9 6.9 0 0 1 2.709 1.762 4.868 4.868 0 0 0 2.424 1.54c.834.073 1.782-.39 2.794-2.15.368-1.416.365-3.138.756-4.552a3.167 3.167 0 0 1 3.288-2.528q.1 2.088.145 4.217c2.438-1.368 2.55-3.121 2.775-4.549a4.2 4.2 0 0 1 .694-1.969 5.13 5.13 0 0 1 2.574-1.514c-.079 1.983-2.841 3.906-1.984 3.762 2.107.051 2.446-.858 2.452-2.014.021-1.155-.224-2.511.831-3.509l2.028 2.263a40.1 40.1 0 0 0 5.518-8.83c1.606-3.3 3-6.774 4.462-10.11.467.9.531 2.634 2.019 1.692 1.624-4.659 3.593-9.258 5.5-14.031a145.762 145.762 0 0 0 5.093-14.528 109.65 109.65 0 0 0-1.879-4.11c.078-.844 1.117-1.486 1.5-.488 1.084-3.762-1.42-.352-2.2-2.242-.05-2.094 1.379-2.748 2.044-1.335-.221-.859-.448-1.8-.671-2.789-.227-.949-.471-1.754-.689-2.708a54.177 54.177 0 0 1-1.067-5.883c-.492-4.037-.439-8.111.775-11.07l.673 1.154c.92-4.608-4.646-5.2-2.532-9.473l.4.82c.982-10-1.094-21.051 2.328-28.681-3.265-1.451 1.456-9.9-3.1-10.54 2.257-5.71 3.069-4.075 4.588-12.117.209-2.147-2.844-3.2-3.319-5.856l2.381-.065-2.5-3.605 2.846-1.918-.611-2.491c-.139.992-1.068 2.109-1.755 1.958-1.077-3.89 1.66-9.483 2.879-9.579l-2.013-9.2c.726.155 1.091 1.079 1.491 2.048-1.342-3.451 2.753-.3.687-4.478-.54.6-1.418-.326-1.9-.428 1.438-2.245 1.451-7.353.844-11.133l1.642.726c.419-6.833-.785-14.398-.755-22.06zM50.555 19.248l-.028.009c-.033-.05-.058-.1-.1-.15.047.051.086.092.128.141zM10.127 249.957a1.485 1.485 0 0 1-.024-.46h.024zm0-115.5v.751c-.024-.093-.051-.176-.073-.275.015-.166.044-.32.073-.475zM6.735 251.929c1.069-.2 2.9-.391 3.336.991-.138-.452-.888-1.614-.432-2.526l.488.571v3.419c-1.377.46-2.693.336-3.392-2.454zm5.087 62.872c1.754-1.392 1.362-2.238.618-3.268-.69-1.032-1.761-2.3-1.1-4.074a2.075 2.075 0 0 1 .347.079 59.677 59.677 0 0 0 1.926 6.6c-.774.71-.002 2.931-1.791.664zm5.7 11.114c-.217-.642-.633-1.9.277-2.329-2.372-1.107-.709 1.079-2.6.793.26-2.165-.792-4.005-1.466-5.807-.592-1.484-.874-2.9.018-4.01a59.644 59.644 0 0 0 5.14 10.645zm177.87 7.887c.183-.4.441-.959.86-1.948l.036.032c-.371.8-.689 1.482-.893 1.917zm2.838-6.4a1.267 1.267 0 0 1-.938-1.738c.268.746 1.4-.83 2.44-1.684-.469.928-.933 2.164-1.499 3.42z"/><path d="M209.24 210.13l-.547.012.479.706zM3.8 272.92c.143-.026.341-.278.556-.584a1.169 1.169 0 0 0-.556.584zm.074 18.628l-.771 2.725a15.967 15.967 0 0 0 .771-2.725zm-.03 16.187a2.734 2.734 0 0 0 .964.071.153.153 0 0 1 .011-.036zM.423 70.635a3.137 3.137 0 0 0-.057-.681c-.323-1.629-.225-.534.057.681zm4.891 70.722a13.7 13.7 0 0 1-1.026-2.247c-.166 1.244-.214 2.21 1.026 2.247zM44.031 3.37c-.005.018 0 .023 0 .05.156-.047.3-.07.452-.106zM4.326 135.86a4.936 4.936 0 0 0-.038 3.25 7.5 7.5 0 0 0 .038-3.25zm35.383 224.346a.908.908 0 0 1 .171-.406l-.751.068zm.171-.406l.74-.073c-.307-.113-.576-.189-.74.073zm2.281-.261c-.514.089-1.022.127-1.541.188.485.179 1.068.504 1.541-.188zm-17.843-10.747l-.624.676a1.778 1.778 0 0 0 .624-.676zm-2.299-1.545c-.517-1.247-.978-2.577-1.869-2.419a22.047 22.047 0 0 1 1.159 2.724 4.761 4.761 0 0 0 1.881 2.447l.5-.531c-.685.319-1.168-.966-1.671-2.221zM3.328 171.7l-1.227 2.007 1.81.955z"/></g></svg><svg viewBox="0 0 80.854 75.637" id="pink-laugh" xmlns="http://www.w3.org/2000/svg"><g fill="#231f20"><path d="M61.696 21.645c-.493-.157-.99-.3-1.485-.44.007-.04.021-.073.026-.114C61.573 10.078 53.237-.023 41.944 0c-11.243.022-19.51 10.092-18.2 21.039q-1.2.341-2.391.726c-3.048.989-1.744 5.819 1.329 4.821a62.744 62.744 0 0 1 10.4-2.419 2.685 2.685 0 0 0 .135.6 8.474 8.474 0 0 0 9.215 5.829 8.321 8.321 0 0 0 6.658-6.6 62.558 62.558 0 0 1 11.273 2.469c3.075.978 4.391-3.847 1.333-4.82zM38.14 23.652c1.95-.116 3.9-.146 5.854-.072a3.145 3.145 0 0 1-5.856.072zm17.179-3.681a65.292 65.292 0 0 0-26.666-.125C28.313 12.09 33.61 5.03 41.944 5c8.416-.031 13.777 7.119 13.373 14.971zm-5.467 15.521a12.929 12.929 0 0 1-16.569.465c-2.575-1.931-5.07 2.408-2.524 4.318a17.909 17.909 0 0 0 22.629-1.247c2.4-2.155-1.145-5.681-3.536-3.536z"/><path d="M79.762 41.975a18.84 18.84 0 0 0-6.584-3.064 2.512 2.512 0 0 0-1.926 4.57c2.7 1.638-11.262 12.064-12.506 12.776a40.781 40.781 0 0 1-17.538 5.327c-12.193.787-23.9-4.377-32.2-13.123.089-.051.171-.113.262-.163 2.823-1.547.3-5.866-2.524-4.317a17.663 17.663 0 0 0-6.329 5.937c-1.758 2.707 2.569 5.216 4.317 2.524.155-.239.335-.452.505-.677C16.39 63.73 33.355 69.296 49.396 65.348a46.455 46.455 0 0 0 20.348-11.016c2.183-2.026 5.492-5.378 6.567-8.656.31.2.62.391.932.616 2.611 1.882 5.11-2.453 2.519-4.317zm-39.26 28.662h-3a2.5 2.5 0 0 0 0 5h3a2.5 2.5 0 0 0 0-5z"/></g></svg><svg viewBox="0 0 141.654 60.236" id="pink-scare" xmlns="http://www.w3.org/2000/svg"><path d="M141.359 1.948a2.553 2.553 0 0 0-2.321-1.947c-21.472.674-114.95.674-136.423 0A2.554 2.554 0 0 0 .294 1.948c-1.213 4.044 1.479 7.494 5.22 8.968 3.077 1.212 5.96.786 8.455 3.477 1.425 1.538 2.262 3.67 3.615 5.3 6.141 7.4 16.4 9.864 25.658 9.577 4.762-.148 9.755-1.024 13.939-3.409 4.533-2.584 5.867-6.37 8.672-10.4a5.485 5.485 0 0 1 .8-.909 6.246 6.246 0 0 1 8.34 0 5.485 5.485 0 0 1 .8.909c2.805 4.033 4.138 7.819 8.672 10.4 4.183 2.385 9.177 3.261 13.938 3.409 9.256.287 19.517-2.175 25.658-9.577 1.353-1.63 2.191-3.762 3.616-5.3 2.494-2.691 5.377-2.265 8.455-3.477 3.749-1.474 6.44-4.924 5.227-8.968zM35.733 11.626L32.9 21.435a2.28 2.28 0 0 0 .178 1.811 25.229 25.229 0 0 1-5.514-2.087 2.347 2.347 0 0 0 .33-.941 104.621 104.621 0 0 1 2.728-13.232 2.507 2.507 0 0 0 .062-1.117l6.3.2zm2.3 12.484v-.014l2.514-11.141 1.715-5.938a2.57 2.57 0 0 0 .1-.781l4.651.146a3.034 3.034 0 0 0-.131.351 85.542 85.542 0 0 0-1.972 9.4q-.917 4.11-1.923 8.2a42.385 42.385 0 0 1-4.95-.223zm59.265.183a30.224 30.224 0 0 1-4.411-.54c.016-.083.041-.159.05-.248a173.574 173.574 0 0 1 2.676-17.154l4.484-.141q-1.775 8.987-2.795 18.083zm-7.357 26.912a6.394 6.394 0 0 0-7.727 1.6 2.577 2.577 0 0 0 0 3.535 2.518 2.518 0 0 0 3.536 0c.448-.561 1.186-1.124 1.942-.7a1.455 1.455 0 0 1 .588 1.473c-.694 3.135 4.125 4.474 4.822 1.329a6.49 6.49 0 0 0-3.161-7.237z" fill="#231f20"/></svg><svg viewBox="0 0 168.607 62.143" id="pink-simple" xmlns="http://www.w3.org/2000/svg"><path d="M48.879 10.624l-1.91-8.734c-.687-3.142-5.574-2.079-4.884 1.074l1.527 6.987.084.394a124.717 124.717 0 0 0-22.164 7.152 2.527 2.527 0 0 0-1.3 2.763c2.009 9.2 15.875 2.189 21.222.649 2.7-.778 7.275-1.166 8.2-4.4.519-1.831-.395-4.149-.775-5.885zM50.33 22.96a5.135 5.135 0 0 0-7.8.8 3.744 3.744 0 0 0-.577 1.9 2.867 2.867 0 0 0 .057 2.4 5.132 5.132 0 0 0 3.184 3.154 5.258 5.258 0 0 0 4.2-.463 5.131 5.131 0 0 0 .936-7.791zm70-12.336l1.91-8.734c.687-3.142 5.574-2.079 4.884 1.074l-1.527 6.987-.084.394a124.715 124.715 0 0 1 22.164 7.152 2.527 2.527 0 0 1 1.3 2.763c-2.009 9.2-15.875 2.189-21.222.649-2.7-.778-7.275-1.166-8.2-4.4-.517-1.831.395-4.149.775-5.885zm-1.451 12.336a5.135 5.135 0 0 1 7.8.8 3.746 3.746 0 0 1 .577 1.9 2.868 2.868 0 0 1-.057 2.4 5.133 5.133 0 0 1-3.184 3.154 5.258 5.258 0 0 1-4.2-.463 5.131 5.131 0 0 1-.936-7.791zM69.784 40.805c-5.647-2.528-13.258 1.024-18.445 3.172-14.707 6.091-29.753 10.589-45.42 4.98a2.245 2.245 0 0 0-1.43-.067c-.229-.109-.459-.212-.687-.323-2.882-1.4-5.42 2.91-2.523 4.317a89.816 89.816 0 0 0 41.642 9.228c9.078-.242 26.718-.694 30.6-11.142 1.446-3.889.223-8.392-3.737-10.165zm-1.722 6.3c4.21 9.3-24.531 10.123-29.49 10a82.521 82.521 0 0 1-10.387-.925q3.228-.381 6.433-1.086a89.514 89.514 0 0 0 15.411-5.179c2.763-1.164 5.513-2.369 8.366-3.3zm27.024 3.865c3.883 10.448 21.522 10.9 30.6 11.142a89.819 89.819 0 0 0 41.642-9.228c2.9-1.407.358-5.718-2.524-4.317-.227.111-.458.214-.686.323a2.248 2.248 0 0 0-1.431.067c-15.666 5.609-30.713 1.111-45.42-4.98-5.186-2.148-12.8-5.7-18.444-3.172-3.96 1.773-5.182 6.276-3.737 10.165zm5.459-3.86c1.258-2.778 2.8-2.2 5.471-1.655a37.629 37.629 0 0 1 4.2 1.162c2.852.934 5.6 2.139 8.366 3.3a89.506 89.506 0 0 0 15.41 5.179q3.2.707 6.434 1.086a82.539 82.539 0 0 1-10.387.925c-4.966.126-33.704-.698-29.494-9.997z" fill="#231f20"/></svg><svg viewBox="0 0 19.905 11.663" id="quotes" xmlns="http://www.w3.org/2000/svg"><path d="M0 11.663L1.479 0h6.444l-2.6 11.663zm11.983 0L13.462 0h6.443l-2.6 11.663z" fill="#006bcc"/></svg><svg viewBox="0 0 356 129.956" id="table" xmlns="http://www.w3.org/2000/svg"><g transform="translate(-1078 -675.42)"><path d="M1375.5 729.766h-247.359L1078 778.597h356z" fill="#c4d1e8"/><path fill="#99acc6" d="M1078 778.597h356v26.779h-356z"/><rect width="122.771" height="81.371" rx="14.75" transform="translate(1199.34 675.42)" fill="#fff"/><path d="M1272.762 715.545c-4.743 3.089-4.488 9.326.869 11.954-.427.914-.819 1.85-1.292 2.744a14.753 14.753 0 0 1-3.27 4.126 3.928 3.928 0 0 1-4.291.833c-.347-.132-.708-.233-1.045-.387a6.4 6.4 0 0 0-5.252.061 9.716 9.716 0 0 1-1.841.59 4.029 4.029 0 0 1-3.452-1.124 13.833 13.833 0 0 1-2.882-3.8 17.858 17.858 0 0 1-2.475-9.556 8.506 8.506 0 0 1 2.932-6.6 7.449 7.449 0 0 1 8.028-1.181 5.192 5.192 0 0 0 4.357.048 8.522 8.522 0 0 1 6.3-.189 7.047 7.047 0 0 1 3.314 2.481zm-12.778-6.579c-1.211-5.4 4.443-12.056 10.392-12.281 1.281 6.239-4.741 12.618-10.392 12.281z" fill="#c4d1e8"/></g></svg></svg>