<svg xmlns="http://www.w3.org/2000/svg" width="115.185" height="68.01" viewBox="0 0 115.185 68.01"><g transform="translate(-340.846 -597.706)"><path d="M401.031,644.645l20-9s8,19-5,27S401.031,644.645,401.031,644.645Z" fill="#d3182a"/><path d="M450.251,597.706c-7.7,0-7.712,11.965,0,11.965S457.964,597.706,450.251,597.706Z"/><path d="M346.625,597.706c-7.7,0-7.712,11.965,0,11.965S354.338,597.706,346.625,597.706Z"/><path d="M425.164,622.672c-4.92,10.13-14.324,16.472-25.21,18.785-10.276,2.184-28.921,2.919-32.651-9.671-1.038-3.505-6.535-2.013-5.49,1.513,4.35,14.684,22.268,16.07,35.084,14.415.533-.068,1.061-.161,1.59-.246.011,9.613,6.593,21.274,17.893,17.531,13.013-4.31,10.566-20.362,7.534-30.328-.012-.041-.033-.073-.047-.113a36.517,36.517,0,0,0,6.213-9.012C431.675,622.263,426.766,619.373,425.164,622.672Zm-7.824,35.2c-3.353,3.1-7.87,2.172-10.653-1.143-2.488-2.963-2.7-6.833-2.473-10.52a47.417,47.417,0,0,0,4.573-1.561,27.5,27.5,0,0,0,2.524,9.269c1.547,3.318,6.456.43,4.917-2.874a20.377,20.377,0,0,1-1.859-8.632,3.3,3.3,0,0,0-.042-.41,41.673,41.673,0,0,0,4.876-3.22C421.066,645.177,422.674,652.947,417.34,657.872Z"/></g></svg>