<svg xmlns="http://www.w3.org/2000/svg" width="256.365" height="351.339" viewBox="0 0 256.365 351.339"><g transform="translate(-270.926 -489.382)"><path d="M430.661,496.973a4.582,4.582,0,0,1,.2-.43,2.989,2.989,0,0,0-1.525.415A7.234,7.234,0,0,1,430.661,496.973Z" fill="#71bfff"/><path d="M361.6,494.047a3.667,3.667,0,0,0,.136.428C361.839,494.171,361.843,493.98,361.6,494.047Z" fill="#71bfff"/><path d="M431.574,497.09a10.662,10.662,0,0,1,1.271.333A3.077,3.077,0,0,0,431.574,497.09Z" fill="#71bfff"/><path d="M297.389,545.92c-1.728-.637.088-4.421-2.6-.19A6.88,6.88,0,0,1,297.389,545.92Z" fill="#71bfff"/><path d="M430.511,497.921c.316-.574.623-.815,1.063-.831a9.094,9.094,0,0,0-.913-.117A1.117,1.117,0,0,0,430.511,497.921Z" fill="#71bfff"/><path d="M527.107,811.651l-.047.954-.186,3.781c.122-1.037.215-2.254.278-3.555.023-.538.047-1.091.071-1.651.016-.363.024-.731.024-1.1l-.093,1.025Z" fill="#71bfff"/><path d="M274.233,732.985l-.3-.942A.961.961,0,0,0,274.233,732.985Z" fill="#71bfff"/><path d="M526.861,838.862a32.863,32.863,0,0,0-5.772-1.749c-.135.2-.347.36-.317.652Z" fill="#71bfff"/><path d="M416.388,499.085l-.444-.27A.471.471,0,0,0,416.388,499.085Z" fill="#71bfff"/><path d="M337.528,506.511c.066-.026.125-.04.193-.069A.4.4,0,0,0,337.528,506.511Z" fill="#71bfff"/><path d="M273.229,746.076c-.042-.089-.1-.19-.149-.289Z" fill="#71bfff"/><path d="M524.343,804.384c4.871-5.544-3.92-11.143,2.322-14.264a209,209,0,0,1-4.623-25.251c4.06.29.405,8.888,4.667,8.543-1.672-7.628-5.157-12.028-4.177-19.592.554-1.959,1.76,1.112,2.454,1.773-1.672-7.62.369-14.735-1.841-21.515.378.019.791.75,1.1,1.442-.134-1.337.593-3.109-1.249-2.958l.5,1.3c-2.678,2.134-5.594-5.307-7.009-5.546,5.288,2.268,1.329-6.7,8.012-3.095a2.462,2.462,0,0,0-2.458-1.781c.361-1.3,1.081-1.719,2.485-.4-1-4.786-2.966-3.086-2.925-7.423.9.016,1.24.891,2.29,1.34-1.742-2.2-3.485-4.4-2.729-8.067.469.192,1.062-.1,1.2.539-.413-6.109-4.578-10.509-2.927-17.284,3.881,2.036,1.278-2.349,4.637-2.715l-1-3.713-1.631,1.49c.057-3.253-2.391-6.127-1.29-8.923l1.384,2.417-.637-6.1-1.274,3.45c-1.732-3.292-4.252.352-3.316-3.977.34.879.041-3.254,2.021-4.949,0,0,0,.011.009.011-1.07-1.609-2.2-3.264-1.362-5.669,1.074-.625,3.716.5,4.431.1-2.808-1.588-.779-7.617-3.771-9.628a3.443,3.443,0,0,0,2.825.485l-2.281-1.332c.73-1.507,1.084-1.727,2.489-1.483.418-4.532-4.262,1.44-2.425-3.939.184.422.525.22.872,1.1.958-5.4-1.448-10.437-.325-15.4,3.381-1.464.828,4.337,3.68,2.661-.622-7.173-4.032-14.787-3.278-21.781-.114.447-.222.9-.351,1.325-2.377-.477-1.836-1.791-.968-3.462a14.185,14.185,0,0,0,1.191-2.722,3.2,3.2,0,0,0-.452-2.78c.421.86,2.734,1,2.185.791a16.81,16.81,0,0,0-.175-3.833,24.088,24.088,0,0,0-1.075-4.017c-.887-2.784-2.318-5.773-3.777-9.256l1.409.651a18.339,18.339,0,0,0-.427-5.391c-.387-1.929-.951-3.842-1.107-5.457-1.4-.566-1.816-2.309-3.16-.741a12.4,12.4,0,0,0,.612-3.983,11.376,11.376,0,0,0-.171-1.83,13.1,13.1,0,0,0-.491-1.7,18.253,18.253,0,0,0-1.521-3.142,30.747,30.747,0,0,0-2.035-2.832l-2.089-2.7a20.637,20.637,0,0,1-1.872-2.726,11.56,11.56,0,0,1-1.576-6.551c.526.886,2.164,1.611,1.752.891-.791-.976-1.536-1.972-2.36-2.915l-2.469-2.808c-1.427,1.625-.531,1.5-1.08,3.647a6.547,6.547,0,0,1-4.387-2.719c2.936,1.866,2.785-1.893,2.87-3.729-.383.56-1.239.569-1.7,1.04.412-2.613-.541-2.146-1.692-1.7s-2.495.84-3.084-1.9l1.028-.459c-1.629-1.171-3.8-1.637-4.917-3.35,1.267-2.211,2.179.8,3.792-.359-1.016-1.069-2.831-1.423-4.353-1.924-1.505-.526-2.824-1.106-2.845-2.884,1.329.428,2.58,1.685,3.864,2.2a7.142,7.142,0,0,0-.4-3.659c-.331-.681-.814-1.09-1.4-2.035l.1.2c-.832-1.534-1.763-2.995-2.7-4.473l.406,1.444c-3.546.978-5-.11-6.563-1.389-1.518-1.3-3.011-2.959-6.215-2.81,6.154-.109,2.032-1.264,4.007-3.179-.532-1.381-1.574-3.278-.665-3.539-1.609.113-2.156-.811-2.907-1.712a3.7,3.7,0,0,0-3.968-1.441c.361-.807-2.112-1.458-.452-3.011-3.036-1.127-.2,1.688-1.036,2.457a5.916,5.916,0,0,1-3.669-1.446,37.427,37.427,0,0,1-3.318-3.013,15.509,15.509,0,0,0-3.895-2.916,10.042,10.042,0,0,0-2.384-.871,8.7,8.7,0,0,0-2.787-.1,17.6,17.6,0,0,0-3.922-.166,26.087,26.087,0,0,0-3.13.569,27.315,27.315,0,0,1-4.4.745q-1.173-.429-2.358-.831a1.624,1.624,0,0,1,.979-1.129,6.53,6.53,0,0,1,1.688-.56,9.245,9.245,0,0,0-3.516-2.125,11.028,11.028,0,0,0-3.966-.281c.742-.584.371-1.363-.195-2.547-2.232-.4-2.236,2.7-4.77.769a11.408,11.408,0,0,1,3.017-2.921c-2.828.189-5.715,1.132-8.527,1.491-.445-1.633,2.04-1.992,3.213-2.794-1.609.06-3.662.044-5.463.3-1.805.271-3.364.9-3.977,2.033l1.363.831a2.1,2.1,0,0,1,1.051-2.194c2.912-1.487,3.617,1.474,3.59,2.349l-1.981.218c.551,2.721,2.4,2.815,4.657,2.429,2.222-.3,4.915-1.206,6.744-.528-.6.76-1.191,1.524-1.778,2.3a114.629,114.629,0,0,0-18.773-3.269c1.835-1.346,4.178-3.574,3.314-6.439-2.083,2.638-2.42,1.466-4.57,4.7a1.917,1.917,0,0,1-2.246-2.228c-.568.721-2.347-.724-3.217,1.12a4.772,4.772,0,0,0,3.183,1.928,5.77,5.77,0,0,0,3.806-1.045c.493.691-.1,1.422-.276,1.96-3.37-.3-6.781-.467-10.229-.473a32.87,32.87,0,0,0,.442-3.582,1.168,1.168,0,0,0,1.147.307l1.136-2.952-2.413.736a.148.148,0,0,0-.011.022c-.368-1.731-1.532-3.3-4.507-4.54-1.483.866-2.933,1.828-4.351,2.8l-1.6-1.916,3.789-.414c-2.272-1.75-3.566.046-4.964,1.319a3.392,3.392,0,0,0-2.116-2.041q-2.013,2.27-3.885,4.529c-.778-1.555,1.528-3.478-1.588-3.989-1.756,2.193,2.487,3.29-.651,5.086-2.391-1.509-2.1-3.138-4.261-1.1-.559-1-.17-1.765.741-2.41a6.68,6.68,0,0,1-1.756.993c-.641.291-1.315.55-1.95.825-1.267.551-2.37,1.187-2.66,2.4-1.377-.926-3.158-.2-4.7.167-1.539.387-2.846.495-3.331-1.414-.415,1.143-2.817,4.229-4.673,5.05.965-2.853-.888-2.31-3.072-1.54a10.721,10.721,0,0,1-3.244.751,1.841,1.841,0,0,1-2-1.662,5.732,5.732,0,0,1-1.78,3.145,21.336,21.336,0,0,1-3.244,2.328c-1.2.747-2.492,1.473-3.683,2.286a12.459,12.459,0,0,0-3,2.938c.058-.367.164-1.047.5-1.26-2.474.967-3.843.321-5.755.636,1.556,3.194-1.668,6.167-2.219,9.314-2.344-.42-2.557-1.538-2.482-2.841s.417-2.774-.966-3.8c1.749,2.245-3.238,5.824-.831,7.055-3.325-.067-2.377.567-5.268-.877,1.2,1.864.839,2.383.176,2.873a2.875,2.875,0,0,0-1.516,2.749,5.062,5.062,0,0,1-3.633-.439c-.621-.254-.994-.14-2.058,1.813-1.19.2-1.38-.625-1.257-1.515a7.75,7.75,0,0,1,.555-1.837c-3.233,2.974.747,3.781,1.4,5.794-1.5,2.068-2.333,2.044-3.115,1.511s-1.513-1.622-2.731-1.578a15.165,15.165,0,0,0-1.346,4.716c-.253,1.543-.464,2.94-1.288,3.78-.528-.225-.983-.006-1.149-.862a6.823,6.823,0,0,1-1.06,3.07,33.474,33.474,0,0,1-2.048,3.063c-.369.518-.737,1.042-1.077,1.576a15.015,15.015,0,0,0-.85,1.684,7.227,7.227,0,0,0-.624,3.585,2.022,2.022,0,0,1-.97-.056,10.385,10.385,0,0,1,4.1,2.1c-1,1.522-.065,3.949-2.275,3.337.652-.9-.034-1.453-.317-2.268l-.239,2.123c-3.574-.214.5-2.79-1.421-4.071a61.261,61.261,0,0,0-1.392,6.082c-.39,2.011-.917,3.764-2.005,4.8-3.009-.929,2.481-6.391-1.825-4.36,1.108-1.12,2.157-2.26,3.328-3.308-5.992.419,1.8-2.189-4.333-2.176a14.61,14.61,0,0,0-3.014,5.82,16.6,16.6,0,0,1-2.7,5.941c.944,1.976,2.442.687,3.411,2.647a6.009,6.009,0,0,1-1.8,4.34,7.827,7.827,0,0,1-3.138,1.5,6.546,6.546,0,0,0-2.808,1.265c-.676.666-1.015,1.721-.548,3.583.694,1.121,1.909,2.135,2.535,3.3s.638,2.462-.919,4.3q-1.453-1.206-2.894-2.454c-1.921,5.639,3.774,4.495.16,9.838-1.085-1.346-.08-4.73-.68-3.966-3.555,3.254,1.269,3.205.6,6.118l-3.112.016c-.777,6.312.628,13.4.921,20.167-.9-.4-1.825-1.636-2.8-.052a49.8,49.8,0,0,1,.047,12.939,114.75,114.75,0,0,1-2.349,12.352l2.642,2.962c-.031.689-1.194,1.279-1.706.532-1,3.023,1.675.157,2.714,1.61.184,1.719-1.519,2.271-2.312,1.181,2.24,5.334,4.825,15.192,2,20.811l-.785-1.1c-1.072,4.375,5.414,4.937,2.951,9l-.468-.779c-1.145,9.5,1.274,19.991-2.714,27.237,3.806,1.378-1.7,9.4,3.61,10.01-2.629,5.423-3.576,3.87-5.346,11.507-.244,2.039,3.314,3.039,3.868,5.561l-2.775.062,2.911,3.423-3.318,1.822.712,2.365c.163-.942,1.246-2,2.046-1.859,1.254,3.694-1.934,9.006-3.355,9.1l2.346,8.74c-.847-.147-1.271-1.024-1.738-1.945,1.564,3.279-3.208.285-.8,4.253.629-.573,1.652.31,2.213.407-1.677,2.132-1.692,6.982-.985,10.572l-1.913-.689c-.486,6.483.918,13.667.883,20.944a2.325,2.325,0,0,1,4.524.123l-2.928.853c1.809,1.378,1.105-2.229,3.321.6-.338,2.718-3.333,1.827-4.286.266l1.017,3.3c-.877.194-1.339-.581-2.455-.783,1.822,1.356-2.942,5.7.22,7.66l-.872.186c-.024,7.274.985,10.572,1.131,16.5a2.363,2.363,0,0,1,1.408.456,2.305,2.305,0,0,1,.436.457c.063.086.123.177.18.272a.972.972,0,0,1,.084.156l.082.253a11.631,11.631,0,0,0,1.825,4.231c-.331,2.856-.862,6.034-1.357,9.556s-.956,7.367-1.148,11.214c1.47.084,3.06.116,4.724.078,3.706-.63,4.443-1.166,4.857-1.732a3.627,3.627,0,0,1,2.177-1.914c-.538,1.151,1.345,1.673,2.8,2.114,1.428.441,2.453.8-.25,1.628l7.1-.258c1.962-.09,4.211-.194,4.976-.345,2.219-.3,4.646-.79,8.627-1.726-.864-.947-1.836-1.356-1.332-2.142,1.445-.38,3.288.966,3.08,2.074l-.381.237c8.777-3.392,20.2,6.348,27.354,2.152l7.376-2.5c3.4.4-2.037,1.733.476,3.159,7.962-3.845,12.581.559,19.137-2,5.076,6.8,18.011-.479,24.862,3.862l-.4-1.6c1.77-1.571,2.142.917,3.447,1.284-.185-1.244-1.921-1.439-.821-2.31,15-1.929,30.958,2.34,46.336,3.786,5.624.429,3.192-8.286,10.282-4.463l-2.013,2.973c11.35-3.568,23.209.124,34.319-2.9-.662.686-.681,1.577-1.765,1.567,2.346,2.16,8.678.1,8.718-1.659,1.73.2.4,1.595,1.467,2.491,2.354,1.275,5.909-2.757,7.16-.608.138.228-.185.456-.545.633A19.989,19.989,0,0,1,499,838.4a7.355,7.355,0,0,0,.966-.132,5.383,5.383,0,0,0,1.256-.271c.615-.244.7-.629.03-1.252a42.993,42.993,0,0,0,10.349.075,31.143,31.143,0,0,1,9.489.292c.447-.834,1.733-1.048,3.364-1.046,0-1.871.306-3.652.262-5.374a5.9,5.9,0,0,0-1.816-4.545c1.018.771,1.732.545,2.2-.427a12.268,12.268,0,0,0,.729-4.591,38.711,38.711,0,0,0-.394-6.032c-.28-1.861-.688-3.844-1.167-4.214,1.231.883,1.275-2.292,2.979-1.258C527.191,806.617,526.435,803.859,524.343,804.384ZM277.9,610.641l-.051,0c-.031-.833-.079-1.545-.079-2C277.772,609.056,277.824,609.635,277.9,610.641Zm-.073,7.913a29.472,29.472,0,0,0,.1-3.326c.876-.27,1.772.023,1.727.794C279.072,615.6,278.566,617.41,277.828,618.554Zm227.53-53.684a7.944,7.944,0,0,1-2.126,1.077q-.545-1.161-1.112-2.307C503.044,563.307,504.1,563.505,505.358,564.87ZM451.16,510c0,.707-.013,1.4-.02,2.107q-1.263-.642-2.543-1.255A5.012,5.012,0,0,1,451.16,510Zm-19.067-7.653a3.192,3.192,0,0,1,.161,2.181q-1.576-.474-3.174-.9C430.072,503.188,431.071,502.77,432.093,502.344Z" fill="#71bfff"/><path d="M522.36,709.436c.008.117.024.231.029.349A1.584,1.584,0,0,0,522.36,709.436Z" fill="#71bfff"/><path d="M273.08,745.787c-.1-.2-.208-.393-.324-.581C272.888,745.424,272.984,745.6,273.08,745.787Z" fill="#71bfff"/><path d="M495.581,838.737a2.006,2.006,0,0,0-.548.234C495.184,838.913,495.387,838.832,495.581,838.737Z" fill="#71bfff"/><path d="M272.988,724.444l.637-.011-.559-.67Z" fill="#71bfff"/><path d="M497.666,546.26a1.255,1.255,0,0,0,.194-.846A1.62,1.62,0,0,0,497.666,546.26Z" fill="#71bfff"/><path d="M485.956,531.232c-.409-.858-.806-1.738-1.265-2.566A19.27,19.27,0,0,0,485.956,531.232Z" fill="#71bfff"/><path d="M475.9,520.359a4.189,4.189,0,0,0-.907.666c0,.013.01.018.01.033Z" fill="#71bfff"/><path d="M524.246,735.52a1.763,1.763,0,0,0,.114.541C524.851,737.33,524.657,736.467,524.246,735.52Z" fill="#71bfff"/><path d="M518.335,669.148a12.077,12.077,0,0,1,1.2,2.134C519.724,670.1,519.775,669.182,518.335,669.148Z" fill="#71bfff"/><path d="M527.247,809.626c.009.158,0,.3,0,.457l.044-.449C527.276,809.626,527.27,809.634,527.247,809.626Z" fill="#71bfff"/><path d="M519.487,674.368a3.875,3.875,0,0,0,.044-3.086A5.825,5.825,0,0,0,519.487,674.368Z" fill="#71bfff"/><path d="M417.131,493.423a.756.756,0,0,1-.143.391l.844-.194Z" fill="#71bfff"/><path d="M416.988,493.814l-.834.2C416.518,494.055,416.835,494.076,416.988,493.814Z" fill="#71bfff"/><path d="M414.411,494.43l1.743-.421C415.579,493.929,414.874,493.76,414.411,494.43Z" fill="#71bfff"/><path d="M436.78,499.254l.5-.8A1.871,1.871,0,0,0,436.78,499.254Z" fill="#71bfff"/><path d="M439.74,499.7c.927.861,1.878,1.728,2.775,1.27-1.23-.749-2.743-3.03-4.836-3.154l-.4.634C437.932,497.954,438.82,498.834,439.74,499.7Z" fill="#71bfff"/><path d="M520.649,640.332l1.43-1.906-2.11-.907Z" fill="#71bfff"/></g></svg>