<svg xmlns="http://www.w3.org/2000/svg" width="134.763" height="55.74" viewBox="0 0 134.763 55.74"><g transform="translate(-869.649 -207.621)"><path d="M1003.1,225.68c-3.468-8.286-13.359-11.791-21.541-8.746a2.54,2.54,0,0,0-1.255.97c-6.768,3.38-8.4,13.991-6.739,21,2.116,8.937,12.882,11.88,20.659,8.733A16.731,16.731,0,0,0,1003.1,225.68Zm-7.285,15.226c-3.917,3.626-11.051,4.22-15.177.587-4.494-3.957-3.512-19.316,3.87-19.653a2.4,2.4,0,0,0,1.822-.888,11.6,11.6,0,0,1,10.976,4.6A11.987,11.987,0,0,1,995.815,240.906Z" fill="#231f20"/><path d="M992.214,229.218a17.1,17.1,0,0,0-1.357-5.51,2.51,2.51,0,0,0-3.926-.506,13.036,13.036,0,0,0-2.539,4.562c-1.341,2.743-1.993,8.259-.56,10.861a3.453,3.453,0,0,0,3.559,1.774,2.538,2.538,0,0,0,3.914-1.319C992.2,236.208,993.167,232.311,992.214,229.218Z" fill="#231f20"/><path d="M879.838,239.41c7.776,3.147,18.543.2,20.659-8.733,1.659-7.009.029-17.62-6.739-21a2.545,2.545,0,0,0-1.255-.97c-8.183-3.045-18.074.461-21.542,8.746A16.731,16.731,0,0,0,879.838,239.41Zm-3.082-22.088a11.6,11.6,0,0,1,10.976-4.6,2.4,2.4,0,0,0,1.821.888c7.382.337,8.364,15.7,3.87,19.654-4.126,3.632-11.26,3.038-15.176-.587A11.987,11.987,0,0,1,876.756,217.322Z" fill="#231f20"/><path d="M881.847,220.99a17.147,17.147,0,0,1,1.357-5.51,2.512,2.512,0,0,1,3.927-.506,13.05,13.05,0,0,1,2.538,4.562c1.341,2.743,1.993,8.259.561,10.862a3.455,3.455,0,0,1-3.56,1.773,2.538,2.538,0,0,1-3.914-1.319C881.866,227.98,880.894,224.083,881.847,220.99Z" fill="#231f20"/><path d="M981.214,260.613c-1.615-8.992-11.239-12.9-18.048-8.727a9.053,9.053,0,0,0-5.567-5.572,9.975,9.975,0,0,0-6.792.209,10.128,10.128,0,0,0-2.651,1.6,5.986,5.986,0,0,0-.868,1.05,10.628,10.628,0,0,0-19.089-2.738c-2.3-3.287-5.618-5.691-10.014-5.3a7.781,7.781,0,0,0-7.278,8.026,10.823,10.823,0,0,0-8.483-.682,11.044,11.044,0,0,0-7.3,9.66c-.215,3.2,4.741,3.867,4.957.65a6.085,6.085,0,0,1,10.645-3.77c2.029,2.12,5.554-.272,4.37-2.48a2.568,2.568,0,0,0,.812-2.778c-1.756-5.717,5.851-3.138,7.466-1.467a13.77,13.77,0,0,1,2.789,5.108c.862,2.365,4.488,1.749,4.783-.645,1.007-8.173,12.524-7.594,12.136.8-.066,1.434,1.118,3.25,2.825,2.8,2.338-.614,2.908-1.634,4.562-3.333,3.868-3.973,9.52-1.51,8.07,4.282-.591,2.363,3.189,3.923,4.456,1.856,3.6-5.881,11.983-4.982,13.264,2.149C976.827,264.459,981.785,263.792,981.214,260.613Z" fill="#231f20"/></g></svg>