<svg xmlns="http://www.w3.org/2000/svg" width="144.684" height="69.433" viewBox="0 0 144.684 69.433"><g transform="translate(-866.689 -337.223)"><path d="M911.2,344.219c-.342-3.165-5.346-3.2-5,0,.163,1.505,1.328,7.084.314,8.153-.625.659-4.734.183-5.907.228l-6.892.266-24.613.95c-3.207.123-3.223,5.124,0,5l14.5-.56c-.316,5.454,1.127,11.639,7.875,11.573,6.827-.066,9.762-6.339,10.151-12.268l.95-.037c2.679-.1,6.745.42,8.5-2.225C912.9,352.552,911.524,347.227,911.2,344.219Zm-19.1,20.54c-3.89.658-3.9-3.774-3.557-6.694l8.089-.312C896.434,360.832,895.452,364.191,892.1,364.759Z"/><path d="M1010.567,339.61c-.343-3.165-5.346-3.2-5,0,.163,1.505,1.327,7.084.314,8.153-.625.659-4.734.183-5.908.228l-6.891.266-24.613.949c-3.207.124-3.223,5.124,0,5l14.5-.559c-.316,5.454,1.127,11.639,7.875,11.573,6.827-.066,9.761-6.339,10.151-12.268l.949-.037c2.68-.1,6.745.42,8.5-2.225C1012.272,347.943,1010.892,342.617,1010.567,339.61Zm-19.1,20.539c-3.891.659-3.9-3.774-3.557-6.693l8.089-.312C995.8,356.223,994.821,359.582,991.471,360.149Z"/><path d="M988.162,394.614c-3.737-5.088-12.129-5.493-18.206-6.15a2.769,2.769,0,0,0-2.732-.321c-18.153-2.3-36.628-2.7-54.906-2.607-9.063.046-18.29.546-27.069,2.971-6.382,1.763-16.526,4.752-17.974,12.258a2.67,2.67,0,0,0,3.792,2.853,2.634,2.634,0,0,0,1.517.229c9.723-1.335,19.628-.089,29.369.449,9.44.523,18.887.9,28.337,1.192s18.905.489,28.36.649q6.846.117,13.693.211c3.957.056,8.669.859,12.517-.374C989.848,404.376,991.162,398.7,988.162,394.614ZM874.149,398.7c2.837-2.607,7.824-3.988,10.8-4.9a67.768,67.768,0,0,1,11.271-2.363q.291,3.78.583,7.558C889.224,398.533,881.706,398,874.149,398.7Zm53.208,1.691q-12.77-.417-25.53-1.113-.321-4.179-.644-8.357c7.569-.581,15.194-.4,22.774-.28,5.886.1,11.772.235,17.655.476a45.176,45.176,0,0,0,.343,9.682Q934.656,400.63,927.357,400.395Zm29.336.709c-3.246-.057-6.493-.13-9.74-.2-.006-.073,0-.142-.013-.217a39.862,39.862,0,0,1-.35-9.342c2.143.114,4.286.238,6.426.392q6.033.435,12.043,1.142-1.187,4.16-2.372,8.318Q959.69,401.151,956.693,401.1Zm24.832.345q-1.656.024-3.313-.019c-2.609-.024-5.217-.072-7.825-.11-.841-.012-1.682-.027-2.523-.04q1.129-3.959,2.258-7.918c3.987.3,8.774.7,11.5,2.512Q985.35,396.753,981.525,401.449Z"/></g></svg>