<svg xmlns="http://www.w3.org/2000/svg" width="261.008" height="347.159" viewBox="0 0 261.008 347.159"><g transform="translate(-803.022 -508.68)"><path d="M806.853,837.479l.948,2.4c.922.559,3.018.243,2.6-1.3Z" fill="#6ae2af"/><path d="M805.812,808.684a3.25,3.25,0,0,0,.934,1.356,10.541,10.541,0,0,1-.376-1.274C806.177,808.743,806.012,808.723,805.812,808.684Z" fill="#6ae2af"/><path d="M854.285,853.069a4.6,4.6,0,0,0,0-.5C854.085,852.852,854.024,853.052,854.285,853.069Z" fill="#6ae2af"/><path d="M806.177,806.568a2.531,2.531,0,0,0,.031,1.3A8.891,8.891,0,0,1,806.177,806.568Z" fill="#6ae2af"/><path d="M942.662,851.717a8.461,8.461,0,0,1-1.343-2.527C941.767,851.189,937.495,851.9,942.662,851.717Z" fill="#6ae2af"/><path d="M807.508,808.67c-.762-.158-1.138-.39-1.3-.8a7.969,7.969,0,0,0,.162.9A1.561,1.561,0,0,0,807.508,808.67Z" fill="#6ae2af"/><path d="M900.126,510.745l4.621.415A23.753,23.753,0,0,0,900.126,510.745Z" fill="#6ae2af"/><path d="M1060.087,743.451l.362.988A.939.939,0,0,0,1060.087,743.451Z" fill="#6ae2af"/><path d="M918.457,510.745a6.586,6.586,0,0,0,2.6,1.943,2.372,2.372,0,0,0,.537-.725Z" fill="#6ae2af"/><path d="M882.144,851.093c-.073-.012-.133-.03-.208-.041A.391.391,0,0,0,882.144,851.093Z" fill="#6ae2af"/><path d="M812.219,822.456l-.268.516A.474.474,0,0,0,812.219,822.456Z" fill="#6ae2af"/><path d="M1062,692.442c-1.064,2.741-5.015,2.111-5.4-.129l3.492-.9c-2.158-1.447-1.318,2.34-3.961-.63.4-2.854,3.975-1.919,5.111-.28l-1.212-3.469c1.045-.2,1.6.61,2.926.821-2.172-1.423,3.508-5.989-.262-8.043l1.04-.2c.029-7.637-1.174-11.1-1.349-17.322-3.018-.122-2.348-2.554-4.787-4.408.962-4.572,3.333-9.647,3.079-15.156-1.5-3.871-2.555-1.13-4.347-2.871,2.746-.285,2.489-5.786,4.462-2.932a65.262,65.262,0,0,0-2.777-16.807c-1.13.907-1.617,1.928-2.555,1.4-.452-1.517,1.153-3.452,2.474-3.234l.282.4c-4.044-9.216,7.569-21.216,2.566-28.723l-2.984-7.745c.476-3.566,2.066,2.139,3.766-.5-4.584-8.361.667-13.21-2.388-20.1,4.054-2.664,3.911-7.392,3.4-12.353a63.866,63.866,0,0,1-.56-7.388c.012-.309.023-.615.035-.918.025-.529.051-1.054.076-1.571.066-1.039.164-2.06.3-3.066a32.1,32.1,0,0,1,1.351-5.9q-.954.7-1.91,1.361a3.117,3.117,0,0,1-.1-3.566,13.105,13.105,0,0,0,1.632-3.756c-1.483,1.155-1.716,4.468-2.754,2.886-.4-4.569-.575-9.112-.586-13.9-6.068.011-11.975-.2-18.113-.536-3.067-.17-6.187-.373-9.387-.6l-1.2-.086-.6-.043-.3-.022-.174-.022-1.359-.179-2.721-.376c-7.259-1.028-14.533-2.228-21.7-2.892-6.338-.477-3.6,9.206-11.586,4.958l2.268-3.3c-12.79,3.965-26.152-.137-38.672,3.225.747-.762.768-1.753,1.99-1.741-2.644-2.4-9.779-.117-9.824,1.843-1.95-.224-.452-1.772-1.653-2.768-2.653-1.416-6.658,3.064-8.068.676-.156-.254.208-.506.615-.7-2.252.657-7.281-.294-5.782,2.212-4.7-1.321-8.989,1.233-12.738-.408-2.444,3.1-8.044-1.491-8.82,2.888.337-4.524-8.238-3.649-11.21-1.521.995-1.367-2.583-1.416-1.418-3.31-3.391.063-6.5.9-5.907,3.227-6.247-5.412-12.556,4.356-16.073-2.58a238.667,238.667,0,0,1-28.453,5.137c.327-4.512,10.015-.45,9.627-5.186-8.6,1.858-13.554,5.73-22.077,4.641-2.207-.615,1.253-1.955,2-2.727a36.789,36.789,0,0,1-6.212.753l-2.4.048-2.519.015-4.991-.015c-3.3-.015-6.578-.017-9.675.124a48.322,48.322,0,0,0-8.408.981c.05.277.1.543.148.81.664.142,1.336.942,2,2.048a44.44,44.44,0,0,1,2.328,4.841c1.334,3.136,2.514,5.972,3.351,6.933-1.409-1.355-2.235-1.715-2.77-1.4-.569.323-.819,1.327-1.121,2.281s-.656,1.871-1.433,2.075c-.776.182-1.975-.263-3.968-2.572.417,1.739,1.459,3.894,2.932,3.925-.43,1.926-1.29,2.615-2.964-.082.6,4.38,1.483,5.7,2.211,6.884a4.529,4.529,0,0,1,1.277,3.772c-1.067-.016-1.478-.935-2.73-1.406,2.077,2.3,4.155,4.622,3.253,8.47-.559-.2-1.265.11-1.427-.566.492,6.414,5.459,11.035,3.49,18.149-4.627-2.139-1.523,2.466-5.529,2.851l1.2,3.9,1.944-1.565c-.069,3.415,2.85,6.433,1.538,9.369l-1.651-2.537.76,6.4,1.52-3.622c2.064,3.456,5.069-.37,3.953,4.176-.406-.924-.049,3.416-2.41,5.2,0,0,0-.012-.011-.012,1.276,1.69,2.621,3.428,1.625,5.954-1.282.656-4.431-.528-5.284-.1,3.348,1.666.929,8,4.5,10.109a4.578,4.578,0,0,0-3.368-.509l2.719,1.4c-.87,1.582-1.292,1.814-2.968,1.557-.5,4.758,5.082-1.512,2.892,4.136-.22-.443-.626-.232-1.04-1.155-1.142,5.673,1.727,10.96.387,16.172-4.031,1.538-.987-4.554-4.388-2.794.731,7.516,4.834,15.563,3.883,22.835l.445-1.355c5.691,1.008-2.81,5.416-.128,9.094-.422-.9-3.16-1.18-2.526-.937-.914,4.981,1.4,10.183,3.192,17.73l-1.465-.935c-1.3,2.935-.752,7.73-1.418,10.9,1.46.941,1.224,2.754,3.349,1.652-8.327,9.776,4.464,18.648-2.473,27.322-.016-1.037-1.279-2.472-1.281-1.647L808.4,720.3c2.479-.585,1.5-.969,3.432-2.521a5.272,5.272,0,0,1,1.414,1.388v2.15c-1.452-.585-3.1,1.665-4.17,2.777.76-.24,1.6.252,2.371.13-2.92,2.555.209,2.012,1.8,2.88v2.989l-1.083-.232a16.243,16.243,0,0,0,1.083,2.286v3.789c-1.593-.028-.724-2.276-2.768-2.393.093,1.679,1.8,3.334,2.768,4.941v3.436c-.066.073-.115.147-.193.22-.8-1.268-.812-3.093-1.606-4.362-3.366,2.945-2.512,3.286-3.047,5.473l.077-.215-1.525,5.058.912-1.288c6.946,3.471,2.176,7.06,5.382,11.587v.159c-3.494-3.426-2.03.065-5.049-.283-.9,1.286-1.914,3.24-2.828,2.684,2.622,2.379-2.064,3.973,1.768,7.331-1.042.151-.1,2.546-2.73,2.009.823,3.095,1.822-.731,3.134-.471,3.576,4.77-4.336,11.211.572,18.072,1.359,3.987,3.4,5.786,5.133,8.215v4.482a6.486,6.486,0,0,1-1.641-1.714c-1.541,2.989-1.258,5.238-.06,8.055-.912-.571-1.685.017-2.859.876.272,2.26,3.809,1.511,2.266,4.492a14.992,14.992,0,0,1-4.2-2.258c.963,2.665,2.918,5.3,3.861,8.053-1.823.731-2.767-1.664-3.956-2.636.82,3.1,1.651,8.03,4.537,8.987l.763-1.472a2.814,2.814,0,0,1-2.738-.768c-2.263-2.656,1-3.831,2.052-3.981l.67,1.964a5.428,5.428,0,0,0,1.309-.612v8.86c-1.764-1.444-4.241-2.625-6.874-1.676,3.415,1.8,1.989,2.232,6.053,4.167a2.06,2.06,0,0,1-2.447,2.435c.911.547-.781,2.4,1.451,3.23a5.654,5.654,0,0,0,1.817-2.04v5.094h2.162c-.6,4.447-2.212,8.927,4.2,12.028l4.689-2.847,1.51,2.258-3.946.142c2.238,2.126,3.658.246,5.246-1.045a3.869,3.869,0,0,0,1.965,2.488l4.6-4.449c.558,1.824-2.064,3.616,1.025,4.622,2.156-2.065-2.068-4.084,1.5-5.442,2.243,2.117,1.589,3.84,4.221,2.034a1.937,1.937,0,0,1-1.231,2.49c2.343-1.438,6.2-.608,7.41-3.083,2.338,2.612,7.912-.679,7.681,3.728.736-1.055,4.127-3.46,6.279-3.643-3.932,5.276,8.056.31,7.017,5.967,2.91-4.744,10.512-2.107,15.666-4.739-.246.32-.693.917-1.1.939,2.723.435,3.585,1.807,5.4,2.679.373-3.918,4.891-4.814,7.326-7.231,3.556,3.781-2.159,4.6-1.043,8.232-.179-3.176,6.179-3.171,4.969-5.815,2.72,2.339,2.344,1.135,3.745,4.382.477-4.9,2.532-.828,4.787-3.838,3.936,2.415,1.014,4.59,5.337,3.1,2.057,1.5-1.788,3.238-1.788,3.238,4.4.08,2.067-3.616,3-5.738,5.255-1.047,2.432,2.722,4.22,4.61,3.282-.977,5.8-4.368,8.244-4.224.183.608.659.83.1,1.592,3.469-2.937,10.3-.144,14.338-3.833a2.191,2.191,0,0,1,.528.915,12.1,12.1,0,0,1-.621-5.068c1.974-.063,3.663-2.334,4.405.081-1.209-.071-1.31.9-1.877,1.657l2.068-1.05c1.862,3.472-2.823,1.2-2.823,3.772,4.033-1.13,8.733-4,11.823-3.022.645,3.4-7.226,1.143-3.1,4.163l-4.781-1.3c3.654,5.359-2.905-.374.452,5.359,6.291.984,7.038-1.731,13.313-.74,1.414-1.887-.467-2.793.947-4.68,8.921-3.391,7.022,8.54,13.58,4.016,1.7-2.263,2.356-6.56,7.026-4.287l-1.592,3.84c6.091.378,3.477-5.52,9.857-2.937-1.134,1.509-4.788,1.272-3.866,1.729,4.133,3.032,2.923-2.178,6.1-2.178l.659,3.4c6.485-.535,13.629-2.991,20.812-3.611-.4,1.011-1.628,2.075.052,3.115a47.32,47.32,0,0,1,14.159-.177l1.795.234.448.064c.167.022.242.044.549.067l1.549.14,6.31.634,13.089,1.47a27.44,27.44,0,0,0,3.555-2.935c1.3.034,3.759,1.326,2.8,1.895,3.626.557,3.248.092,2.139-.657s-2.786-1.781-2.067-2.358l.373-.015c0-2.578,1.874-1.908,2.772.783-.667-3.068-1.361-6.5-1.973-9.928s-1.142-6.854-1.483-10.1c-.171-1.626-.294-3.213-.357-4.759q-.018-.579-.036-1.153c0-.356-.007-.711-.011-1.063,0-.486.018-.967.054-1.439a12.117,12.117,0,0,1,1.427-5.116l.936,1.151c1.278-4.595-6.456-5.185-3.519-9.446l.558.817c1.365-9.972-1.52-20.992,3.235-28.6-4.537-1.446,2.023-9.869-4.3-10.511,3.136-5.693,4.265-4.063,6.374-12.082.291-2.141-3.951-3.192-4.611-5.84l3.309-.064-3.471-3.6,3.956-1.913-.849-2.484a2.639,2.639,0,0,1-2.439,1.953c-1.5-3.88,2.306-9.457,4-9.553l-2.8-9.177c.985.151,1.491,1.033,2.032,1.974-1.761-3.341,3.848-.257.994-4.4-.75.6-1.971-.325-2.639-.427,2-2.238,2.018-7.331,1.174-11.1l2.281.724C1063.635,707.626,1061.961,700.083,1062,692.442Zm-249.622,11.3c.259-.034.555-.065.863-.09v1.688A5,5,0,0,1,812.381,703.743Zm.018,81.012.845-.363v1.354A9.047,9.047,0,0,1,812.4,784.755Zm.845,20.589v1.882l-1.178-1.288A4.262,4.262,0,0,1,813.244,805.344Zm-1.937,3,1.937.715v4.783C812.3,811.955,811.159,809.985,811.307,808.345Zm.71,21.033a1.477,1.477,0,0,1,1.227-.207v2.12A7.519,7.519,0,0,0,812.017,829.378ZM1013.7,847.422l-2.122.159,2.122-.215Zm4.894-.21c-.3-.972.024-1.97.894-1.919-.472.647,1.565,1.209,2.854,2.029A33.65,33.65,0,0,0,1018.594,847.212Z" fill="#6ae2af"/><path d="M1061.245,729.636a9.753,9.753,0,0,0,.6.981C1061.628,730.3,1061.434,729.966,1061.245,729.636Z" fill="#6ae2af"/><path d="M805.3,514.08c-.582.037-1.272.016-1.95-.007-.074,1.789-.157,3.451,1.5,4.588l-.6-2.7a.936.936,0,0,1,.408.006,3.368,3.368,0,0,1-.587-1.225A3.059,3.059,0,0,1,805.3,514.08Z" fill="#6ae2af"/><path d="M939.579,510.884a2.24,2.24,0,0,0,.616-.261C940.026,510.688,939.8,510.778,939.579,510.884Z" fill="#6ae2af"/><path d="M805.606,551.178c-.009-.123-.028-.242-.034-.367A1.535,1.535,0,0,0,805.606,551.178Z" fill="#6ae2af"/><path d="M804.67,515.985l0-.011-.009,0Z" fill="#6ae2af"/><path d="M1061.573,752.419l-.76.012.667.7Z" fill="#6ae2af"/><path d="M808.3,724.675a1.873,1.873,0,0,0,.772-.583A1.475,1.475,0,0,0,808.3,724.675Z" fill="#6ae2af"/><path d="M808.4,743.249l-1.074,2.71A12.176,12.176,0,0,0,808.4,743.249Z" fill="#6ae2af"/><path d="M806.9,757.979a5.9,5.9,0,0,0,1.292.288c.009-.012.009-.02.023-.029Z" fill="#6ae2af"/><path d="M805.3,514.08a3.669,3.669,0,0,0,.9-.127C808.1,513.408,806.636,513.623,805.3,514.08Z" fill="#6ae2af"/><path d="M810.405,593.481a12.242,12.242,0,0,1-1.425-2.24C808.749,592.481,808.689,593.445,810.405,593.481Z" fill="#6ae2af"/><path d="M899.62,510.7c-.009.017,0,.024-.009.049.179-.01.337,0,.515,0Z" fill="#6ae2af"/><path d="M809.033,588a3.625,3.625,0,0,0-.053,3.241A5.43,5.43,0,0,0,809.033,588Z" fill="#6ae2af"/><path d="M805.409,822.527a1.043,1.043,0,0,1,.485.084l-.359-.794Z" fill="#6ae2af"/><path d="M805.894,822.611l.356.788C806.25,823.037,806.227,822.723,805.894,822.611Z" fill="#6ae2af"/><path d="M807.01,825.058l-.76-1.659C806.243,823.973,806.148,824.682,807.01,825.058Z" fill="#6ae2af"/><path d="M805.834,802.095a2.633,2.633,0,0,0,1.094.224Z" fill="#6ae2af"/><path d="M806.612,796.393c-.249,1.413-2.334,3.546-1.649,5.518l.871.184C804.207,801.168,808.456,797.736,806.612,796.393Z" fill="#6ae2af"/><path d="M807.646,623.739l-1.705,2,2.515.953Z" fill="#6ae2af"/></g></svg>