<svg xmlns="http://www.w3.org/2000/svg" width="211.009" height="370.159" viewBox="0 0 211.009 370.159"><g transform="translate(-1412.026 -496.68)"><path d="M1458.49,852.629c-.354-.82.2-1.569.382-2.148a10.921,10.921,0,0,0-2.432,2.642,5.915,5.915,0,0,0-.91,4.11,9.159,9.159,0,0,1,2.115-2.088,7.451,7.451,0,0,0,2.124-2.615c1.263-.18,2.06,1.409,1.755,2.587.505-.76,1.962.937,2.74-1.065C1462.729,851.348,1460.887,851.055,1458.49,852.629Z" fill="#ff80de"/><path d="M1440.592,850.273a2.212,2.212,0,0,0,1.363.009,8.574,8.574,0,0,1-1.1-.413C1440.768,850.012,1440.694,850.134,1440.592,850.273Z" fill="#ff80de"/><path d="M1440.609,836.7l.711.175C1441.127,836.847,1440.842,836.723,1440.609,836.7Z" fill="#ff80de"/><path d="M1495.336,864.069c.02-.2-.008-.327,0-.5C1495.192,863.852,1495.148,864.052,1495.336,864.069Z" fill="#ff80de"/><path d="M1440.11,849.487a5.882,5.882,0,0,1-.985-.743A2.261,2.261,0,0,0,1440.11,849.487Z" fill="#ff80de"/><path d="M1559.118,862.717a9.906,9.906,0,0,1-.969-2.527C1558.472,862.189,1555.389,862.9,1559.118,862.717Z" fill="#ff80de"/><path d="M1440.11,849.487a7.113,7.113,0,0,0,.745.382,1.427,1.427,0,0,0,.336-.973C1440.8,849.423,1440.486,849.594,1440.11,849.487Z" fill="#ff80de"/><path d="M1456.509,499.994c1.37-.206,2.743-.3,4.111-.372A13.141,13.141,0,0,0,1456.509,499.994Z" fill="#ff80de"/><path d="M1620.2,697.817l.26.991A1.157,1.157,0,0,0,1620.2,697.817Z" fill="#ff80de"/><path d="M1471.67,498.745a5.221,5.221,0,0,0,1.878,1.943,2.494,2.494,0,0,0,.387-.725Z" fill="#ff80de"/><path d="M1515.442,862.093c-.052-.012-.095-.03-.15-.041A.218.218,0,0,0,1515.442,862.093Z" fill="#ff80de"/><path d="M1621.188,684.338c.088.206.178.412.277.609C1621.352,684.719,1621.27,684.529,1621.188,684.338Z" fill="#ff80de"/><path d="M1621.059,684.031c.036.094.084.2.129.307C1621.144,684.235,1621.1,684.133,1621.059,684.031Z" fill="#ff80de"/><path d="M1453.079,850.784l.33.364A.439.439,0,0,0,1453.079,850.784Z" fill="#ff80de"/><path d="M1413.886,595.614c-.007-.124-.02-.243-.025-.368A2.129,2.129,0,0,0,1413.886,595.614Z" fill="#ff80de"/><path d="M1412.449,567.315c-.01,1.655-.659,3.834.924,3.7l-.4-1.61a1.615,1.615,0,0,1,.3-.243C1412.963,569.1,1412.662,568.192,1412.449,567.315Z" fill="#ff80de"/><path d="M1486.913,498.884a1.429,1.429,0,0,0,.445-.261A4.992,4.992,0,0,0,1486.913,498.884Z" fill="#ff80de"/><path d="M1413.29,569.163v-.007l-.006,0Z" fill="#ff80de"/><path d="M1621.576,646.664c-.766,2.748-3.609,2.117-3.883-.13l2.513-.9c-1.553-1.451-.948,2.347-2.85-.631.29-2.862,2.86-1.925,3.678-.281l-.872-3.48c.752-.2,1.148.612,2.106.824-1.563-1.427,2.524-6.006-.189-8.066l.749-.2c.021-7.659-.845-11.132-.971-17.372-2.172-.121-1.69-2.561-3.445-4.42.691-4.584,2.4-9.674,2.215-15.2-1.08-3.882-1.838-1.134-3.128-2.879,1.976-.286,1.791-5.8,3.211-2.941a89.271,89.271,0,0,0-2-16.854c-.812.91-1.163,1.933-1.838,1.4a3.391,3.391,0,0,1,.412-2.275c.369-.625.876-1.2,1.357-1.058l.211.463a30.343,30.343,0,0,1-.853-8.589c.069-3.021.252-6.218.292-9.43-.015-1.591-.012-3.2-.163-4.737-.067-.77-.139-1.534-.246-2.273s-.257-1.451-.417-2.143a11.784,11.784,0,0,0-3.14-6.121c-.855-1.172-1.789-2.254-2.681-3.33-.947-1.038-1.847-2.083-2.827-3.019-.785-1.81-.214-1.6.523-1.339s1.639.587,1.422-1.177a32.006,32.006,0,0,1-7.365-8.587c-1.845-2.822-3.745-5.531-6.951-6.736-.287-4.926-4.348-8.078-8.825-10.043-2.249-.989-4.59-1.755-6.736-2.585-.537-.208-1.06-.433-1.566-.68s-1.005-.466-1.478-.743a12.056,12.056,0,0,1-1.36-.91,9.481,9.481,0,0,1-1.235-1.062l.145,1.842c-.984.66-1.457.289-1.865-.326-.407-.6-.74-1.454-1.376-1.764.063,1.4,1.727,1.9.551,2.678-1.84-.063-3.674-.106-5.513-.129l-2.669-.023q-1.167-.009-2.34-.073a78.728,78.728,0,0,1-9.45-1.17c-6.333-1.118-12.7-2.706-18.957-3.509-4.573-.477-2.595,9.206-8.361,4.958l1.636-3.3c-9.23,3.965-18.873-.137-27.909,3.225.539-.762.554-1.753,1.436-1.741-1.908-2.4-7.057-.117-7.09,1.843-1.407-.224-.326-1.772-1.193-2.768-1.914-1.416-4.8,3.064-5.822.676-.113-.254.15-.506.443-.7-1.625.657-5.254-.294-4.173,2.212-3.391-1.321-6.487,1.233-9.192-.408-1.764,3.1-5.806-1.491-6.366,2.888.22-2.261-1.586-3.177-3.747-3.1a8.5,8.5,0,0,0-5.7,2.6c.678-1.547-2.394-.883-1.674-2.974a8.914,8.914,0,0,0-3.716,1.884,2.324,2.324,0,0,0-.711,2.819,4.171,4.171,0,0,0-2.243-.543,4.671,4.671,0,0,0-1.99.544,12.538,12.538,0,0,0-3.244,2.814c-1.935,2.1-3.4,3.983-6.093,2.006a86.273,86.273,0,0,0-8.617,12.3,101.367,101.367,0,0,0-6.248,12.7c-1.355-1.379-.251-3.763.969-5.911,1.193-2.169,2.44-4.174.993-5.621a54.4,54.4,0,0,0-3.745,11.865,56.837,56.837,0,0,1-3.485,11.085c-.557.981-.813.493-.962-.4-.133-.88-.131-2.155-.27-2.7-.89,4.728-2.089,8.992-2.92,13.328a35.058,35.058,0,0,0-.486,12.884,1.109,1.109,0,0,1,1.427.277,9.488,9.488,0,0,1,1.629,2.348c.507.972,1.01,1.876,1.451,2.613s.826,1.272,1.129,1.335c-4.538-2.389-1.141,7.053-6.875,3.259.3.926,1.049,2.087,2.109,1.875-.309,1.374-.928,1.811-2.133.417.862,5.04,2.546,3.249,2.51,7.816-.768-.016-1.063-.937-1.965-1.41,1.5,2.312,2.991,4.636,2.342,8.495-.4-.2-.911.11-1.027-.568.354,6.432,3.928,11.066,2.511,18.2-3.33-2.145-1.095,2.473-3.979,2.859l.86,3.91,1.4-1.569c-.049,3.425,2.052,6.451,1.107,9.4l-1.188-2.545.547,6.418,1.094-3.633c1.486,3.465,3.648-.371,2.845,4.187-.292-.926-.036,3.426-1.735,5.211,0,0,0-.011-.007-.011.918,1.694,1.886,3.437,1.169,5.97-.922.658-3.189-.529-3.8-.1,2.41,1.671.669,8.021,3.237,10.138a2.505,2.505,0,0,0-2.425-.511l1.958,1.4c-.627,1.587-.93,1.819-2.136,1.561-.359,4.772,3.657-1.516,2.081,4.148-.159-.445-.451-.232-.749-1.158-.821,5.689,1.243,10.99.279,16.218-2.9,1.542-.71-4.567-3.158-2.8.526,7.537,3.479,15.606,2.794,22.9l.321-1.36c4.1,1.011-2.023,5.432-.092,9.12-.3-.9-2.275-1.183-1.818-.94-.658,4.995,1.007,10.212,2.3,17.78l-1.054-.937c-.939,2.943-.542,7.751-1.021,10.931,1.051.944.881,2.762,2.41,1.658-5.992,9.8,3.213,18.7-1.779,27.4-.012-1.04-.921-2.479-.923-1.652l.967,7.409c1.784-.586,1.081-.971,2.47-2.527a7.134,7.134,0,0,1,1.878,4.865c-1.182-3.332-2.866.029-3.861,1.468.547-.242,1.15.252,1.706.13-3.175,3.87,3.59.649,1.452,5.933l-.937-.28c.479,1.978,1.718,3.8,1.45,5.933-2.065.884-.963-2.1-2.662-2.241.118,2.995,3.91,5.911,1.853,8.622-.575-1.272-.585-3.1-1.156-4.374-2.423,2.952-1.808,3.294-2.193,5.488l.055-.216-.548,2.536c-.18.865-.336,1.864-.5,2.805l.628-1.462a7.193,7.193,0,0,1,3.246,6.049c.208,2.123.268,4.583,2.449,6.588a15.077,15.077,0,0,0-2.073-1.758c-.412-.232-.613-.144-.762.091-.306.468-.383,1.514-1.554,1.625-.392,1.551-.706,3.957-1.454,3.554,1.2,1.008,1.063,2.2,1.108,3.533a4.217,4.217,0,0,0,2.1,3.9c-.326.256-.138.936-.108,1.6s-.065,1.3-1.035,1.505c1.681,2.96.927-1.465,1.9-1.641,2.012,1.768,2.281,4.918,3.1,8.322.784,3.355,2.109,7.017,5.373,8.47a15.265,15.265,0,0,0,1.566,1.171,10.822,10.822,0,0,0,1.45.73,11.483,11.483,0,0,0,2.611.736c.831.164,1.642.3,2.514.506a10.628,10.628,0,0,1,1.33.427,12.228,12.228,0,0,1,1.466.627,1.413,1.413,0,0,1-1.159,1.823,4.065,4.065,0,0,1-1.5-.008c1.2,3.1,2.924,4.349,5.319,4.971-.732.388-.645,1.361-.44,2.764,1.782,1.018,2.418-2.234,4.079.474a8.853,8.853,0,0,1-3.1,2.337c2.4.621,5.006.242,7.377.437.116,1.873-2.025,1.767-3.151,2.323a20.02,20.02,0,0,0,4.668.808,3.763,3.763,0,0,0,3.586-1.57l-1.026-1.132a2.427,2.427,0,0,1-1.155,2.244,1.612,1.612,0,0,1-2.4-.815,4.847,4.847,0,0,1-.255-2.38c.552.073,1.117.082,1.671.108-.067-3.032-1.5-3.473-3.382-3.563-.938-.044-1.992.016-2.976-.114a4.405,4.405,0,0,1-2.588-.972q1.394-1.36,2.711-2.78a35.5,35.5,0,0,1-4.1.855c-.146-1.407.494-3.636,1.992-3.131-.473-1.62-1.019-1.608-1.52-1.67-.5-.044-.98-.1-1.2-1.71.009-.447.171-.528.4-.52l-2.215-.674c.744-.354,1.174-2.541,1.85-1.089a5.6,5.6,0,0,0-1.586-2.453,8.37,8.37,0,0,0-1.885-1.109c-1.229-.533-2.169-1.058-1.753-2.742l.352.107c-2.056-1.921-2.592-1.611-3.186-.907-.6.68-1.221,1.78-3.6.763.831-2.115,1.753-4.158,2.706-6.127a60.089,60.089,0,0,0,36.023,26.324l-.376,1.355.394-.151c.031-.4.057-.792.071-1.183.59.149,1.187.28,1.784.411l-1.855.772c-.141,1.822-.455,3.659-.5,5.417a.838.838,0,0,0-.971-.346q-.481,1.641-1.008,3.278l2.084-.817.007-.019a7.175,7.175,0,0,0,3.362,5.163l3.384-2.847,1.09,2.258-2.848.142c1.615,2.126,2.64.246,3.786-1.045a3.881,3.881,0,0,0,1.418,2.488l3.322-4.449c.4,1.824-1.49,3.616.739,4.622,1.556-2.065-1.492-4.084,1.084-5.442,1.619,2.117,1.147,3.84,3.046,2.034a2.177,2.177,0,0,1-.888,2.49c1.691-1.438,4.475-.608,5.348-3.083,1.686,2.612,5.709-.679,5.543,3.728.531-1.055,2.978-3.46,4.531-3.643-2.837,5.276,5.815.31,5.064,5.967,2.1-4.744,7.587-2.107,11.307-4.739-.178.32-.5.917-.8.939,1.965.435,2.587,1.807,3.9,2.679.268-3.918,3.529-4.814,5.287-7.231,2.566,3.781-1.559,4.6-.753,8.232-.129-3.176,4.459-3.171,3.586-5.815,1.963,2.339,1.692,1.135,2.7,4.382.344-4.9,1.827-.828,3.455-3.838,2.84,2.415.731,4.59,3.851,3.1,1.485,1.5-1.291,3.238-1.291,3.238,3.178.08,1.493-3.616,2.167-5.738,3.792-1.047,1.755,2.722,3.046,4.61,2.368-.977,4.184-4.368,5.949-4.224.132.608.475.83.073,1.592,2.5-2.937,7.431-.144,10.348-3.833a2.512,2.512,0,0,1,.381.915,16.5,16.5,0,0,1-.448-5.068c1.424-.063,2.643-2.334,3.179.081-.873-.071-.946.9-1.355,1.657l1.493-1.05c1.343,3.472-2.037,1.2-2.037,3.772,2.937-1.145,6.2-3.953,8.761-3.117.333,1.7-1.117,2.03-2.236,2.3-.584.142-.953.238-1.072.507-.09.263.057.7.879,1.439-1.229-.417-2.323-.861-3.49-1.291,2.637,5.359-2.1-.374.326,5.359a7.929,7.929,0,0,0,2.78.16,13.972,13.972,0,0,0,2.455-.607,15.337,15.337,0,0,1,5.806-1.062c.993-2.086-.7-2.674.252-4.783a6.69,6.69,0,0,1,2.235-1.149,3.133,3.133,0,0,1,1.742-.059,6.9,6.9,0,0,1,2.709,1.762,4.868,4.868,0,0,0,2.424,1.54c.834.073,1.782-.39,2.794-2.15.368-1.416.365-3.138.756-4.552a3.167,3.167,0,0,1,3.288-2.528q.1,2.088.145,4.217c2.438-1.368,2.55-3.121,2.775-4.549a4.2,4.2,0,0,1,.694-1.969,5.13,5.13,0,0,1,2.574-1.514c-.079,1.983-2.841,3.906-1.984,3.762,2.107.051,2.446-.858,2.452-2.014.021-1.155-.224-2.511.831-3.509l2.028,2.263a40.1,40.1,0,0,0,5.518-8.83c1.606-3.3,3-6.774,4.462-10.11.467.9.531,2.634,2.019,1.692,1.624-4.659,3.593-9.258,5.5-14.031a145.762,145.762,0,0,0,5.093-14.528c-.613-1.419-1.243-2.79-1.879-4.11.078-.844,1.117-1.486,1.5-.488,1.084-3.762-1.42-.352-2.2-2.242-.05-2.094,1.379-2.748,2.044-1.335-.221-.859-.448-1.8-.671-2.789-.227-.949-.471-1.754-.689-2.708a54.177,54.177,0,0,1-1.067-5.883c-.492-4.037-.439-8.111.775-11.07l.673,1.154c.92-4.608-4.646-5.2-2.532-9.473l.4.82c.982-10-1.094-21.051,2.328-28.681-3.265-1.451,1.456-9.9-3.1-10.54,2.257-5.71,3.069-4.075,4.588-12.117.209-2.147-2.844-3.2-3.319-5.856l2.381-.065-2.5-3.605,2.846-1.918-.611-2.491c-.139.992-1.068,2.109-1.755,1.958-1.077-3.89,1.66-9.483,2.879-9.579l-2.013-9.2c.726.155,1.091,1.079,1.491,2.048-1.342-3.451,2.753-.3.687-4.478-.54.6-1.418-.326-1.9-.428,1.438-2.245,1.451-7.353.844-11.133l1.642.726C1622.75,661.891,1621.546,654.326,1621.576,646.664ZM1462.581,515.928l-.028.009c-.033-.05-.058-.1-.1-.15C1462.5,515.838,1462.539,515.879,1462.581,515.928Zm-40.428,230.709a1.485,1.485,0,0,1-.024-.46c.009,0,.014,0,.024,0Zm0-115.5v.751c-.024-.093-.051-.176-.073-.275C1422.095,631.447,1422.124,631.293,1422.153,631.138Zm-3.392,117.472c1.069-.2,2.9-.391,3.336.991-.138-.452-.888-1.614-.432-2.526l.488.571v3.419C1420.776,751.524,1419.46,751.4,1418.761,748.61Zm5.087,62.872c1.754-1.392,1.362-2.238.618-3.268-.69-1.032-1.761-2.3-1.1-4.074a2.075,2.075,0,0,1,.347.079,59.677,59.677,0,0,0,1.926,6.6C1424.865,811.528,1425.637,813.749,1423.848,811.482Zm5.7,11.114c-.217-.642-.633-1.9.277-2.329-2.372-1.107-.709,1.079-2.6.793.26-2.165-.792-4.005-1.466-5.807-.592-1.484-.874-2.9.018-4.01a59.644,59.644,0,0,0,5.14,10.645Zm177.87,7.887c.183-.4.441-.959.86-1.948l.036.032C1607.943,829.366,1607.625,830.048,1607.421,830.483Zm2.838-6.4a1.267,1.267,0,0,1-.938-1.738c.268.746,1.4-.83,2.44-1.684C1611.289,821.588,1610.825,822.824,1610.259,824.08Z" fill="#ff80de"/><path d="M1621.266,706.81l-.547.012.479.706Z" fill="#ff80de"/><path d="M1415.826,769.6c.143-.026.341-.278.556-.584A1.169,1.169,0,0,0,1415.826,769.6Z" fill="#ff80de"/><path d="M1415.9,788.228l-.771,2.725A15.967,15.967,0,0,0,1415.9,788.228Z" fill="#ff80de"/><path d="M1415.87,804.415a2.734,2.734,0,0,0,.964.071.153.153,0,0,1,.011-.036Z" fill="#ff80de"/><path d="M1412.449,567.315a3.137,3.137,0,0,0-.057-.681C1412.069,565.005,1412.167,566.1,1412.449,567.315Z" fill="#ff80de"/><path d="M1417.34,638.037a13.7,13.7,0,0,1-1.026-2.247C1416.148,637.034,1416.1,638,1417.34,638.037Z" fill="#ff80de"/><path d="M1456.057,500.05c-.005.018,0,.023,0,.05.156-.047.3-.07.452-.106Z" fill="#ff80de"/><path d="M1416.352,632.54a4.936,4.936,0,0,0-.038,3.25A7.5,7.5,0,0,0,1416.352,632.54Z" fill="#ff80de"/><path d="M1451.735,856.886a.908.908,0,0,1,.171-.406l-.751.068Z" fill="#ff80de"/><path d="M1451.906,856.48l.74-.073C1452.339,856.294,1452.07,856.218,1451.906,856.48Z" fill="#ff80de"/><path d="M1454.187,856.219c-.514.089-1.022.127-1.541.188C1453.131,856.586,1453.714,856.911,1454.187,856.219Z" fill="#ff80de"/><path d="M1436.344,845.472l-.624.676A1.778,1.778,0,0,0,1436.344,845.472Z" fill="#ff80de"/><path d="M1434.045,843.927c-.517-1.247-.978-2.577-1.869-2.419a22.047,22.047,0,0,1,1.159,2.724,4.761,4.761,0,0,0,1.881,2.447l.5-.531C1435.031,846.467,1434.548,845.182,1434.045,843.927Z" fill="#ff80de"/><path d="M1415.354,668.38l-1.227,2.007,1.81.955Z" fill="#ff80de"/></g></svg>