<svg xmlns="http://www.w3.org/2000/svg" width="80.854" height="75.637" viewBox="0 0 80.854 75.637"><g transform="translate(-1460.104 -203.008)"><path d="M1521.8,224.653c-.493-.157-.99-.3-1.485-.44.007-.04.021-.073.026-.114,1.336-11.013-7-21.114-18.293-21.091-11.243.022-19.51,10.092-18.2,21.039q-1.2.341-2.391.726c-3.048.989-1.744,5.819,1.329,4.821a62.744,62.744,0,0,1,10.4-2.419,2.685,2.685,0,0,0,.135.6,8.474,8.474,0,0,0,9.215,5.829,8.321,8.321,0,0,0,6.658-6.6,62.558,62.558,0,0,1,11.273,2.469C1523.542,230.451,1524.858,225.626,1521.8,224.653Zm-23.556,2.007c1.95-.116,3.9-.146,5.854-.072A3.145,3.145,0,0,1,1498.242,226.66Zm17.179-3.681a65.292,65.292,0,0,0-26.666-.125c-.34-7.756,4.957-14.816,13.291-14.846C1510.464,207.977,1515.825,215.127,1515.421,222.979Z" fill="#231f20"/><path d="M1509.956,238.5a12.929,12.929,0,0,1-16.569.465c-2.575-1.931-5.07,2.408-2.524,4.318a17.909,17.909,0,0,0,22.629-1.247C1515.892,239.881,1512.347,236.355,1509.956,238.5Z" fill="#231f20"/><path d="M1539.866,244.983a18.84,18.84,0,0,0-6.584-3.064,2.512,2.512,0,0,0-1.926,4.57c2.7,1.638-11.262,12.064-12.506,12.776a40.781,40.781,0,0,1-17.538,5.327c-12.193.787-23.9-4.377-32.2-13.123.089-.051.171-.113.262-.163,2.823-1.547.3-5.866-2.524-4.317a17.663,17.663,0,0,0-6.329,5.937c-1.758,2.707,2.569,5.216,4.317,2.524.155-.239.335-.452.505-.677,11.151,11.965,28.116,17.531,44.157,13.583a46.455,46.455,0,0,0,20.348-11.016c2.183-2.026,5.492-5.378,6.567-8.656.31.2.62.391.932.616C1539.958,251.182,1542.457,246.847,1539.866,244.983Z" fill="#231f20"/><path d="M1500.606,273.645h-3a2.5,2.5,0,0,0,0,5h3a2.5,2.5,0,0,0,0-5Z" fill="#231f20"/></g></svg>