<svg xmlns="http://www.w3.org/2000/svg" width="356" height="129.956" viewBox="0 0 356 129.956"><g transform="translate(-1078 -675.42)"><path d="M1394.5,505H1147.141L1097,553.831h356Z" transform="translate(-19 224.766)" fill="#c4d1e8"/><rect width="356" height="26.779" transform="translate(1078 778.597)" fill="#99acc6"/><rect width="122.771" height="81.371" rx="14.75" transform="translate(1199.34 675.42)" fill="#fff"/><g transform="translate(-19 224.766)"><path d="M1291.762,490.779c-4.743,3.089-4.488,9.326.869,11.954-.427.914-.819,1.85-1.292,2.744a14.753,14.753,0,0,1-3.27,4.126,3.928,3.928,0,0,1-4.291.833c-.347-.132-.708-.233-1.045-.387a6.4,6.4,0,0,0-5.252.061,9.716,9.716,0,0,1-1.841.59,4.029,4.029,0,0,1-3.452-1.124,13.833,13.833,0,0,1-2.882-3.8,17.858,17.858,0,0,1-2.475-9.556,8.506,8.506,0,0,1,2.932-6.6,7.449,7.449,0,0,1,8.028-1.181,5.192,5.192,0,0,0,4.357.048,8.522,8.522,0,0,1,6.3-.189A7.047,7.047,0,0,1,1291.762,490.779Z" fill="#c4d1e8"/><path d="M1278.984,484.2c-1.211-5.4,4.443-12.056,10.392-12.281C1290.657,478.158,1284.635,484.537,1278.984,484.2Z" fill="#c4d1e8"/></g></g></svg>